<?xml version="1.0" encoding="UTF-8" standalone="no"?>
<!-- Created with Inkscape (http://www.inkscape.org/) -->

<svg
   width="500.00003"
   height="500.13052"
   viewBox="0 0 132.29168 132.3262"
   version="1.1"
   id="svg8"
   inkscape:version="1.1.2 (0a00cf5339, 2022-02-04)"
   sodipodi:docname="specialized_instances_logo.svg"
   inkscape:export-filename="/home/cacheson/Downloads/specialized_instances_logo.png"
   inkscape:export-xdpi="96"
   inkscape:export-ydpi="96"
   xmlns:inkscape="http://www.inkscape.org/namespaces/inkscape"
   xmlns:sodipodi="http://sodipodi.sourceforge.net/DTD/sodipodi-0.dtd"
   xmlns="http://www.w3.org/2000/svg"
   xmlns:svg="http://www.w3.org/2000/svg"
   xmlns:rdf="http://www.w3.org/1999/02/22-rdf-syntax-ns#"
   xmlns:cc="http://creativecommons.org/ns#"
   xmlns:dc="http://purl.org/dc/elements/1.1/">
  <defs
     id="defs2">
    <radialGradient
       id="SVGID_1_"
       cx="65.983299"
       cy="98.449898"
       r="98.330101"
       gradientUnits="userSpaceOnUse"
       gradientTransform="matrix(0.26458333,0,0,0.26458333,-1.3455805,49.463968)">
      <stop
         offset="0.2828"
         style="stop-color:#AFE4FE"
         id="stop2498" />
      <stop
         offset="0.7021"
         style="stop-color:#84D4F9"
         id="stop2500" />
      <stop
         offset="0.9653"
         style="stop-color:#67C9F6"
         id="stop2502" />
    </radialGradient>
    <radialGradient
       id="SVGID_2_"
       cx="65.178497"
       cy="11.3529"
       r="124.8695"
       fx="63.749199"
       fy="11.3904"
       gradientUnits="userSpaceOnUse"
       gradientTransform="matrix(0.26458333,0,0,0.26458333,-1.3455805,49.463968)">
      <stop
         offset="0.5576"
         style="stop-color:#488187"
         id="stop2551" />
      <stop
         offset="0.6746"
         style="stop-color:#477D83"
         id="stop2553" />
      <stop
         offset="0.7977"
         style="stop-color:#427078"
         id="stop2555" />
      <stop
         offset="0.9231"
         style="stop-color:#3B5B66"
         id="stop2557" />
      <stop
         offset="0.9532"
         style="stop-color:#395561"
         id="stop2559" />
    </radialGradient>
    <linearGradient
       id="a"
       x1="5.3702998"
       x2="122.37"
       y1="22.659"
       y2="105.16"
       gradientUnits="userSpaceOnUse"
       gradientTransform="matrix(0.26458333,0,0,0.26458333,-71.514569,-44.247607)">
      <stop
         stop-color="#fff"
         stop-opacity="0"
         offset="0"
         id="stop3941" />
      <stop
         stop-color="#C8C8C8"
         stop-opacity=".1646"
         offset=".1646"
         id="stop3943" />
      <stop
         stop-color="#828282"
         stop-opacity=".3934"
         offset=".3934"
         id="stop3945" />
      <stop
         stop-color="#4A4A4A"
         stop-opacity=".5997"
         offset=".5997"
         id="stop3947" />
      <stop
         stop-color="#222"
         stop-opacity=".7759"
         offset=".7759"
         id="stop3949" />
      <stop
         stop-color="#090909"
         stop-opacity=".9151"
         offset=".9151"
         id="stop3951" />
      <stop
         offset="1"
         id="stop3953" />
    </linearGradient>
  </defs>
  <sodipodi:namedview
     id="base"
     pagecolor="#000000"
     bordercolor="#666666"
     borderopacity="1.0"
     inkscape:pageopacity="0"
     inkscape:pageshadow="2"
     inkscape:zoom="1.2123872"
     inkscape:cx="310.13195"
     inkscape:cy="288.68665"
     inkscape:document-units="mm"
     inkscape:current-layer="layer1"
     showgrid="false"
     inkscape:snap-smooth-nodes="true"
     inkscape:snap-midpoints="true"
     inkscape:snap-global="false"
     inkscape:window-width="1920"
     inkscape:window-height="1135"
     inkscape:window-x="0"
     inkscape:window-y="0"
     inkscape:window-maximized="1"
     fit-margin-top="5"
     fit-margin-left="5"
     fit-margin-right="5"
     fit-margin-bottom="5"
     inkscape:pagecheckerboard="0"
     units="px" />
  <metadata
     id="metadata5">
    <rdf:RDF>
      <cc:Work
         rdf:about="">
        <dc:format>image/svg+xml</dc:format>
        <dc:type
           rdf:resource="http://purl.org/dc/dcmitype/StillImage" />
      </cc:Work>
    </rdf:RDF>
  </metadata>
  <g
     inkscape:groupmode="layer"
     id="layer1"
     inkscape:label="Background">
    <rect
       style="fill:#000000;fill-opacity:1;stroke-width:0.264385"
       id="rect6850"
       width="132.29167"
       height="132.29167"
       x="-3.5527137e-15"
       y="0" />
  </g>
  <g
     inkscape:groupmode="layer"
     id="layer2"
     inkscape:label="Linies"
     style="display:inline"
     transform="translate(-28.993294,-61.146151)">
    <path
       id="path9722"
       style="color:#000000;font-style:normal;font-variant:normal;font-weight:normal;font-stretch:normal;font-size:medium;line-height:normal;font-family:sans-serif;font-variant-ligatures:normal;font-variant-position:normal;font-variant-caps:normal;font-variant-numeric:normal;font-variant-alternates:normal;font-feature-settings:normal;text-indent:0;text-align:start;text-decoration:none;text-decoration-line:none;text-decoration-style:solid;text-decoration-color:#000000;letter-spacing:normal;word-spacing:normal;text-transform:none;writing-mode:lr-tb;direction:ltr;text-orientation:mixed;dominant-baseline:auto;baseline-shift:baseline;text-anchor:start;white-space:normal;shape-padding:0;clip-rule:nonzero;display:inline;overflow:visible;visibility:visible;opacity:1;isolation:auto;mix-blend-mode:normal;color-interpolation:sRGB;color-interpolation-filters:linearRGB;solid-color:#000000;solid-opacity:1;vector-effect:none;fill:#a730b8;fill-opacity:1;fill-rule:nonzero;stroke:none;stroke-width:25.5442;stroke-linecap:butt;stroke-linejoin:miter;stroke-miterlimit:4;stroke-dasharray:none;stroke-dashoffset:0;stroke-opacity:1;color-rendering:auto;image-rendering:auto;shape-rendering:auto;text-rendering:auto;enable-background:accumulate"
       d="m 153.77734,227.97852 a 82.348231,82.348231 0 0 1 -18.08203,18.04296 l 70.43555,70.71094 23.96094,-12.14453 z m 102.16407,102.55859 -23.96094,12.14453 21.42969,21.51367 a 82.348232,82.348232 0 0 1 18.08398,-18.04492 z"
       transform="matrix(0.26458333,0,0,0.26458333,28.993294,61.146151)" />
    <path
       id="path9729"
       style="color:#000000;font-style:normal;font-variant:normal;font-weight:normal;font-stretch:normal;font-size:medium;line-height:normal;font-family:sans-serif;font-variant-ligatures:normal;font-variant-position:normal;font-variant-caps:normal;font-variant-numeric:normal;font-variant-alternates:normal;font-feature-settings:normal;text-indent:0;text-align:start;text-decoration:none;text-decoration-line:none;text-decoration-style:solid;text-decoration-color:#000000;letter-spacing:normal;word-spacing:normal;text-transform:none;writing-mode:lr-tb;direction:ltr;text-orientation:mixed;dominant-baseline:auto;baseline-shift:baseline;text-anchor:start;white-space:normal;shape-padding:0;clip-rule:nonzero;display:inline;overflow:visible;visibility:visible;opacity:1;isolation:auto;mix-blend-mode:normal;color-interpolation:sRGB;color-interpolation-filters:linearRGB;solid-color:#000000;solid-opacity:1;vector-effect:none;fill:#5496be;fill-opacity:1;fill-rule:nonzero;stroke:none;stroke-width:25.5442;stroke-linecap:butt;stroke-linejoin:miter;stroke-miterlimit:4;stroke-dasharray:none;stroke-dashoffset:0;stroke-opacity:1;color-rendering:auto;image-rendering:auto;shape-rendering:auto;text-rendering:auto;enable-background:accumulate"
       d="m 334.32812,256.96484 -19.66406,9.9668 4.14844,26.53516 27.0625,-13.71485 a 82.348232,82.348232 0 0 1 -11.54688,-22.78711 z m -52.32617,26.51954 -96.42773,48.86914 a 82.348231,82.348231 0 0 1 11.54883,22.7871 l 89.02734,-45.11914 z"
       transform="matrix(0.26458333,0,0,0.26458333,28.993294,61.146151)" />
    <path
       id="path9713"
       style="color:#000000;font-style:normal;font-variant:normal;font-weight:normal;font-stretch:normal;font-size:medium;line-height:normal;font-family:sans-serif;font-variant-ligatures:normal;font-variant-position:normal;font-variant-caps:normal;font-variant-numeric:normal;font-variant-alternates:normal;font-feature-settings:normal;text-indent:0;text-align:start;text-decoration:none;text-decoration-line:none;text-decoration-style:solid;text-decoration-color:#000000;letter-spacing:normal;word-spacing:normal;text-transform:none;writing-mode:lr-tb;direction:ltr;text-orientation:mixed;dominant-baseline:auto;baseline-shift:baseline;text-anchor:start;white-space:normal;shape-padding:0;clip-rule:nonzero;display:inline;overflow:visible;visibility:visible;opacity:1;isolation:auto;mix-blend-mode:normal;color-interpolation:sRGB;color-interpolation-filters:linearRGB;solid-color:#000000;solid-opacity:1;vector-effect:none;fill:#ce3d1a;fill-opacity:1;fill-rule:nonzero;stroke:none;stroke-width:25.5442;stroke-linecap:butt;stroke-linejoin:miter;stroke-miterlimit:4;stroke-dasharray:none;stroke-dashoffset:0;stroke-opacity:1;color-rendering:auto;image-rendering:auto;shape-rendering:auto;text-rendering:auto;enable-background:accumulate"
       d="m 220.53125,153.88672 -45.50781,88.8418 18.95312,19.02539 49.29297,-96.22852 a 82.348232,82.348232 0 0 1 -22.73828,-11.63867 z m -62.20313,121.4375 -13.81835,26.97266 a 82.348231,82.348231 0 0 1 22.73242,11.64648 l 10.03711,-19.5957 z"
       transform="matrix(0.26458333,0,0,0.26458333,28.993294,61.146151)" />
    <path
       id="path1015"
       style="color:#000000;font-style:normal;font-variant:normal;font-weight:normal;font-stretch:normal;font-size:medium;line-height:normal;font-family:sans-serif;font-variant-ligatures:normal;font-variant-position:normal;font-variant-caps:normal;font-variant-numeric:normal;font-variant-alternates:normal;font-feature-settings:normal;text-indent:0;text-align:start;text-decoration:none;text-decoration-line:none;text-decoration-style:solid;text-decoration-color:#000000;letter-spacing:normal;word-spacing:normal;text-transform:none;writing-mode:lr-tb;direction:ltr;text-orientation:mixed;dominant-baseline:auto;baseline-shift:baseline;text-anchor:start;white-space:normal;shape-padding:0;clip-rule:nonzero;display:inline;overflow:visible;visibility:visible;opacity:1;isolation:auto;mix-blend-mode:normal;color-interpolation:sRGB;color-interpolation-filters:linearRGB;solid-color:#000000;solid-opacity:1;vector-effect:none;fill:#d0188f;fill-opacity:1;fill-rule:nonzero;stroke:none;stroke-width:25.5442;stroke-linecap:butt;stroke-linejoin:miter;stroke-miterlimit:4;stroke-dasharray:none;stroke-dashoffset:0;stroke-opacity:1;color-rendering:auto;image-rendering:auto;shape-rendering:auto;text-rendering:auto;enable-background:accumulate"
       d="m 112.52734,257.77148 a 82.348231,82.348231 0 0 1 -25.240231,3.92188 l 6.324219,40.44726 a 82.348232,82.348232 0 0 1 25.238282,-3.92187 z"
       transform="matrix(0.26458333,0,0,0.26458333,28.993294,61.146151)" />
    <path
       id="path1674"
       style="color:#000000;font-style:normal;font-variant:normal;font-weight:normal;font-stretch:normal;font-size:medium;line-height:normal;font-family:sans-serif;font-variant-ligatures:normal;font-variant-position:normal;font-variant-caps:normal;font-variant-numeric:normal;font-variant-alternates:normal;font-feature-settings:normal;text-indent:0;text-align:start;text-decoration:none;text-decoration-line:none;text-decoration-style:solid;text-decoration-color:#000000;letter-spacing:normal;word-spacing:normal;text-transform:none;writing-mode:lr-tb;direction:ltr;text-orientation:mixed;dominant-baseline:auto;baseline-shift:baseline;text-anchor:start;white-space:normal;shape-padding:0;clip-rule:nonzero;display:inline;overflow:visible;visibility:visible;opacity:1;isolation:auto;mix-blend-mode:normal;color-interpolation:sRGB;color-interpolation-filters:linearRGB;solid-color:#000000;solid-opacity:1;vector-effect:none;fill:#5b36e9;fill-opacity:1;fill-rule:nonzero;stroke:none;stroke-width:25.5442;stroke-linecap:butt;stroke-linejoin:miter;stroke-miterlimit:4;stroke-dasharray:none;stroke-dashoffset:0;stroke-opacity:1;color-rendering:auto;image-rendering:auto;shape-rendering:auto;text-rendering:auto;enable-background:accumulate"
       d="M 201.13867,380.79883 A 82.348231,82.348231 0 0 1 201.01758,385 82.348231,82.348231 0 0 1 197.0332,406.01367 l 40.50782,6.5 a 82.348232,82.348232 0 0 1 0.0723,-4.21094 82.348232,82.348232 0 0 1 3.98242,-21.01171 z"
       transform="matrix(0.26458333,0,0,0.26458333,28.993294,61.146151)" />
    <path
       id="path1676"
       style="color:#000000;font-style:normal;font-variant:normal;font-weight:normal;font-stretch:normal;font-size:medium;line-height:normal;font-family:sans-serif;font-variant-ligatures:normal;font-variant-position:normal;font-variant-caps:normal;font-variant-numeric:normal;font-variant-alternates:normal;font-feature-settings:normal;text-indent:0;text-align:start;text-decoration:none;text-decoration-line:none;text-decoration-style:solid;text-decoration-color:#000000;letter-spacing:normal;word-spacing:normal;text-transform:none;writing-mode:lr-tb;direction:ltr;text-orientation:mixed;dominant-baseline:auto;baseline-shift:baseline;text-anchor:start;white-space:normal;shape-padding:0;clip-rule:nonzero;display:inline;overflow:visible;visibility:visible;opacity:1;isolation:auto;mix-blend-mode:normal;color-interpolation:sRGB;color-interpolation-filters:linearRGB;solid-color:#000000;solid-opacity:1;vector-effect:none;fill:#30b873;fill-opacity:1;fill-rule:nonzero;stroke:none;stroke-width:25.5442;stroke-linecap:butt;stroke-linejoin:miter;stroke-miterlimit:4;stroke-dasharray:none;stroke-dashoffset:0;stroke-opacity:1;color-rendering:auto;image-rendering:auto;shape-rendering:auto;text-rendering:auto;enable-background:accumulate"
       d="m 364.2168,298.12891 -18.66016,36.42968 a 82.348231,82.348231 0 0 1 22.73633,11.64649 l 18.66406,-36.4375 A 82.348232,82.348232 0 0 1 364.2168,298.12891 Z"
       transform="matrix(0.26458333,0,0,0.26458333,28.993294,61.146151)" />
    <path
       id="path1678"
       style="color:#000000;font-style:normal;font-variant:normal;font-weight:normal;font-stretch:normal;font-size:medium;line-height:normal;font-family:sans-serif;font-variant-ligatures:normal;font-variant-position:normal;font-variant-caps:normal;font-variant-numeric:normal;font-variant-alternates:normal;font-feature-settings:normal;text-indent:0;text-align:start;text-decoration:none;text-decoration-line:none;text-decoration-style:solid;text-decoration-color:#000000;letter-spacing:normal;word-spacing:normal;text-transform:none;writing-mode:lr-tb;direction:ltr;text-orientation:mixed;dominant-baseline:auto;baseline-shift:baseline;text-anchor:start;white-space:normal;shape-padding:0;clip-rule:nonzero;display:inline;overflow:visible;visibility:visible;opacity:1;isolation:auto;mix-blend-mode:normal;color-interpolation:sRGB;color-interpolation-filters:linearRGB;solid-color:#000000;solid-opacity:1;vector-effect:none;fill:#ebe305;fill-opacity:1;fill-rule:nonzero;stroke:none;stroke-width:25.5442;stroke-linecap:butt;stroke-linejoin:miter;stroke-miterlimit:4;stroke-dasharray:none;stroke-dashoffset:0;stroke-opacity:1;color-rendering:auto;image-rendering:auto;shape-rendering:auto;text-rendering:auto;enable-background:accumulate"
       d="m 335.39258,135.9375 a 82.348232,82.348232 0 0 1 -18.08203,18.04297 l 28.91211,29.02539 a 82.348231,82.348231 0 0 1 18.08203,-18.04492 z"
       transform="matrix(0.26458333,0,0,0.26458333,28.993294,61.146151)" />
    <path
       id="path1680"
       style="color:#000000;font-style:normal;font-variant:normal;font-weight:normal;font-stretch:normal;font-size:medium;line-height:normal;font-family:sans-serif;font-variant-ligatures:normal;font-variant-position:normal;font-variant-caps:normal;font-variant-numeric:normal;font-variant-alternates:normal;font-feature-settings:normal;text-indent:0;text-align:start;text-decoration:none;text-decoration-line:none;text-decoration-style:solid;text-decoration-color:#000000;letter-spacing:normal;word-spacing:normal;text-transform:none;writing-mode:lr-tb;direction:ltr;text-orientation:mixed;dominant-baseline:auto;baseline-shift:baseline;text-anchor:start;white-space:normal;shape-padding:0;clip-rule:nonzero;display:inline;overflow:visible;visibility:visible;opacity:1;isolation:auto;mix-blend-mode:normal;color-interpolation:sRGB;color-interpolation-filters:linearRGB;solid-color:#000000;solid-opacity:1;vector-effect:none;fill:#f47601;fill-opacity:1;fill-rule:nonzero;stroke:none;stroke-width:25.5442;stroke-linecap:butt;stroke-linejoin:miter;stroke-miterlimit:4;stroke-dasharray:none;stroke-dashoffset:0;stroke-opacity:1;color-rendering:auto;image-rendering:auto;shape-rendering:auto;text-rendering:auto;enable-background:accumulate"
       d="m 190.64258,112.72461 -36.50781,18.50195 a 82.348231,82.348231 0 0 1 11.54687,22.78516 l 36.50781,-18.50195 a 82.348232,82.348232 0 0 1 -11.54687,-22.78516 z"
       transform="matrix(0.26458333,0,0,0.26458333,28.993294,61.146151)" />
    <path
       id="path9758"
       style="color:#000000;font-style:normal;font-variant:normal;font-weight:normal;font-stretch:normal;font-size:medium;line-height:normal;font-family:sans-serif;font-variant-ligatures:normal;font-variant-position:normal;font-variant-caps:normal;font-variant-numeric:normal;font-variant-alternates:normal;font-feature-settings:normal;text-indent:0;text-align:start;text-decoration:none;text-decoration-line:none;text-decoration-style:solid;text-decoration-color:#000000;letter-spacing:normal;word-spacing:normal;text-transform:none;writing-mode:lr-tb;direction:ltr;text-orientation:mixed;dominant-baseline:auto;baseline-shift:baseline;text-anchor:start;white-space:normal;shape-padding:0;clip-rule:nonzero;display:inline;overflow:visible;visibility:visible;opacity:1;isolation:auto;mix-blend-mode:normal;color-interpolation:sRGB;color-interpolation-filters:linearRGB;solid-color:#000000;solid-opacity:1;vector-effect:none;fill:#57c115;fill-opacity:1;fill-rule:nonzero;stroke:none;stroke-width:25.5442;stroke-linecap:butt;stroke-linejoin:miter;stroke-miterlimit:4;stroke-dasharray:none;stroke-dashoffset:0;stroke-opacity:1;color-rendering:auto;image-rendering:auto;shape-rendering:auto;text-rendering:auto;enable-background:accumulate"
       d="m 294.49805,165.625 a 82.348232,82.348232 0 0 1 -25.22657,4.03125 l 3.40625,21.80469 26.51954,4.2539 z m -16.17188,62.01562 16.65821,106.66797 a 82.348231,82.348231 0 0 1 25.25781,-3.82226 l -15.39649,-98.5918 z"
       transform="matrix(0.26458333,0,0,0.26458333,28.993294,61.146151)" />
    <path
       id="path9760"
       style="color:#000000;font-style:normal;font-variant:normal;font-weight:normal;font-stretch:normal;font-size:medium;line-height:normal;font-family:sans-serif;font-variant-ligatures:normal;font-variant-position:normal;font-variant-caps:normal;font-variant-numeric:normal;font-variant-alternates:normal;font-feature-settings:normal;text-indent:0;text-align:start;text-decoration:none;text-decoration-line:none;text-decoration-style:solid;text-decoration-color:#000000;letter-spacing:normal;word-spacing:normal;text-transform:none;writing-mode:lr-tb;direction:ltr;text-orientation:mixed;dominant-baseline:auto;baseline-shift:baseline;text-anchor:start;white-space:normal;shape-padding:0;clip-rule:nonzero;display:inline;overflow:visible;visibility:visible;opacity:1;isolation:auto;mix-blend-mode:normal;color-interpolation:sRGB;color-interpolation-filters:linearRGB;solid-color:#000000;solid-opacity:1;vector-effect:none;fill:#dbb210;fill-opacity:1;fill-rule:nonzero;stroke:none;stroke-width:25.5442;stroke-linecap:butt;stroke-linejoin:miter;stroke-miterlimit:4;stroke-dasharray:none;stroke-dashoffset:0;stroke-opacity:1;color-rendering:auto;image-rendering:auto;shape-rendering:auto;text-rendering:auto;enable-background:accumulate"
       d="m 169.69531,179.54492 a 82.348231,82.348231 0 0 1 -0.12109,4.32617 82.348231,82.348231 0 0 1 -3.94336,20.89258 l 21.86719,3.51172 12.24023,-23.90625 z m 66.19922,10.63086 -12.24219,23.9082 106.70313,17.13672 a 82.348232,82.348232 0 0 1 0.0703,-4.10742 82.348232,82.348232 0 0 1 4.01563,-21.11133 z"
       transform="matrix(0.26458333,0,0,0.26458333,28.993294,61.146151)" />
  </g>
  <g
     inkscape:groupmode="layer"
     id="layer3"
     inkscape:label="Nodes"
     style="display:inline;opacity:1"
     transform="translate(-28.993294,-61.146151)">
    <path
       id="path817"
       style="fill:#ffca00;fill-opacity:0.995968;stroke:none;stroke-width:1.22883;stroke-opacity:0.960784"
       d="m 267.39648,10.402344 a 76.960959,76.960959 0 0 0 -75.27929,72.759765 76.960959,76.960959 0 0 0 72.66211,81.033201 76.960959,76.960959 0 0 0 81.03125,-72.662107 76.960959,76.960959 0 0 0 -72.66016,-81.03125 76.960959,76.960959 0 0 0 -5.75391,-0.09961 z m 0.47071,23.083984 a 53.872671,53.872671 0 0 1 4.02734,0.06836 53.872671,53.872671 0 0 1 50.86328,56.724609 53.872671,53.872671 0 0 1 -56.72265,50.861323 53.872671,53.872671 0 0 1 -50.86328,-56.722651 53.872671,53.872671 0 0 1 52.69531,-50.931641 z"
       transform="matrix(0.26458333,0,0,0.26458333,28.993294,61.146151)" />
    <path
       id="path819"
       style="fill:#64ff00;fill-opacity:0.995968;stroke:none;stroke-width:1.22883;stroke-opacity:0.960784"
       d="m 411.08398,154.64648 a 76.960959,76.960959 0 0 0 -75.27929,72.75977 76.960959,76.960959 0 0 0 72.66211,81.0332 76.960959,76.960959 0 0 0 81.03125,-72.66211 76.960959,76.960959 0 0 0 -72.66016,-81.0332 76.960959,76.960959 0 0 0 -5.75391,-0.0977 z m 0.47071,23.08399 a 53.872671,53.872671 0 0 1 4.02734,0.0684 53.872671,53.872671 0 0 1 50.86328,56.72265 53.872671,53.872671 0 0 1 -56.72265,50.86329 53.872671,53.872671 0 0 1 -50.86328,-56.72266 53.872671,53.872671 0 0 1 52.69531,-50.93164 z"
       transform="matrix(0.26458333,0,0,0.26458333,28.993294,61.146151)" />
    <path
       id="path823"
       style="fill:#00a3ff;fill-opacity:0.995968;stroke:none;stroke-width:1.22883;stroke-opacity:0.960784"
       d="m 318.27148,335.83789 a 76.960959,76.960959 0 0 0 -75.27929,72.75781 76.960959,76.960959 0 0 0 72.66211,81.03321 76.960959,76.960959 0 0 0 81.03125,-72.66016 76.960959,76.960959 0 0 0 -72.66016,-81.0332 76.960959,76.960959 0 0 0 -5.75391,-0.0977 z m 0.47071,23.08203 a 53.872671,53.872671 0 0 1 4.02734,0.0703 53.872671,53.872671 0 0 1 50.86328,56.72266 53.872671,53.872671 0 0 1 -56.72265,50.86328 53.872671,53.872671 0 0 1 -50.86328,-56.72461 53.872671,53.872671 0 0 1 52.69531,-50.93164 z"
       transform="matrix(0.26458333,0,0,0.26458333,28.993294,61.146151)" />
    <path
       id="path825"
       style="fill:#9500ff;fill-opacity:0.995968;stroke:none;stroke-width:1.22883;stroke-opacity:0.960784"
       d="m 117.22266,303.57617 a 76.960959,76.960959 0 0 0 -75.279301,72.75781 76.960959,76.960959 0 0 0 72.662111,81.03321 76.960959,76.960959 0 0 0 81.0332,-72.66016 76.960959,76.960959 0 0 0 -72.66211,-81.0332 76.960959,76.960959 0 0 0 -5.7539,-0.0977 z m 0.4707,23.08399 a 53.872671,53.872671 0 0 1 4.02734,0.0684 53.872671,53.872671 0 0 1 50.86328,56.72265 53.872671,53.872671 0 0 1 -56.72265,50.86328 53.872671,53.872671 0 0 1 -50.863283,-56.72461 53.872671,53.872671 0 0 1 52.695313,-50.92968 z"
       transform="matrix(0.26458333,0,0,0.26458333,28.993294,61.146151)" />
    <path
       id="path827"
       style="fill:#ff0000;fill-opacity:0.995968;stroke:none;stroke-width:1.22883;stroke-opacity:0.960784"
       d="m 85.779297,102.44727 a 76.960959,76.960959 0 0 0 -75.277344,72.75781 76.960959,76.960959 0 0 0 72.660156,81.0332 76.960959,76.960959 0 0 0 81.033201,-72.66016 76.960959,76.960959 0 0 0 -72.662107,-81.0332 76.960959,76.960959 0 0 0 -5.753906,-0.0977 z M 86.25,125.5293 a 53.872671,53.872671 0 0 1 4.029297,0.0684 53.872671,53.872671 0 0 1 50.861323,56.72461 A 53.872671,53.872671 0 0 1 84.417969,233.18359 53.872671,53.872671 0 0 1 33.554688,176.46094 53.872671,53.872671 0 0 1 86.25,125.5293 Z"
       transform="matrix(0.26458333,0,0,0.26458333,28.993294,61.146151)" />
    <g
       id="g500"
       transform="matrix(0.17004319,0,0,0.16970958,40.69137,98.276751)">
      <path
         style="fill:#2f7889"
         d="M 123.8,12.23 C 123.37,9.41 121.04,8.01 121.04,8.01 117.62,8.44 97.88,17 97.88,17 L 97.23,22.55 54.61,64.3 c -0.42,0.42 -0.36,1.13 0.13,1.59 l 6.74,6.74 c 0.52,0.44 1.25,0.44 1.63,-0.01 0,0 3.65,-1.27 7.97,-6.12 2.88,-3.23 2.07,-5.11 3.58,-6.8 11.31,-12.66 27.04,-30.26 28.27,-31.64 l 5.21,0.15 c 0.92,0.03 1.78,-0.46 2.23,-1.26 1.33,-2.38 4.22,-7.39 6.19,-9.51 1.71,-1.84 2.38,-1.6 4.65,-2.26 2.22,-0.66 2.92,-0.82 2.59,-2.95 z"
         id="path428" />
      <path
         style="fill:#fffde7"
         d="m 56.78,62.1 c 0,0 -3.62,-4.12 -7.31,-2.46 -4.93,2.22 -1.56,7.75 -8.15,10.04 -7.2,2.49 -12.3,7.24 -9.84,13 2.64,6.18 13.18,6.53 13.68,22.38 0.24,7.59 5.66,7.4 8.06,4.91 4.21,-4.39 3.79,-17.97 8.14,-22.81 4.35,-4.84 15.13,-3.6 19.04,-12.62 0,0 -6.7,6.73 -15.21,0.09 -4.03,-3.15 -3.98,-8.4 -3.98,-8.4 z"
         id="path430" />
      <path
         style="fill:#c62828"
         d="m 67.24,54.3 c 0,0 0.44,0.45 -0.84,-0.65 -2.74,-2.35 -4.61,5.96 -8.85,1.75 -5.61,-4.74 -3.94,-8.93 0.41,-13.61 2.13,-2.29 3.05,-3.35 2.63,-6.02 -0.35,-2.27 -2.47,-3.71 -5.31,-3.71 -2.77,0.16 -7.7,3.86 -12.44,10.9 -7.21,10.7 -3.79,16.38 -11.3,22.1 -7.5,5.71 -24.07,7.73 -25.21,22.21 -0.65,8.31 3.21,13.05 8.15,19.12 3.42,4.21 11.64,11.48 17.76,14.54 6.12,3.06 13.71,4.75 19.97,0.58 13.86,-9.23 11.79,-18.61 14.13,-24.68 2.69,-6.96 9.36,-4.63 16.2,-11.16 5.08,-4.54 6.21,-9.12 5.9,-12.19 -0.33,-3.15 -3.11,-6.44 -5.72,-6.02 -1,-0.47 0.1,2.47 -0.75,4.19 -2.15,4.37 -5.6,6.92 -10.17,3.32 -3.69,-2.91 0.64,-10.37 0.64,-10.37 l -2.86,-3.42 z"
         id="path432" />
      <path
         style="fill:#f44336"
         d="m 65.1,52.16 c 0,0 0.44,0.45 -0.84,-0.65 -2.74,-2.35 -8.37,5.19 -12.6,0.98 -3.93,-3.91 1.75,-9.97 5.94,-14.05 3.6,-2.85 0.17,-6.52 -2.3,-6.38 -2.77,0.16 -9.84,1.72 -14.58,8.76 -7.21,10.7 -3.79,16.38 -11.3,22.1 -6.04,4.59 -15.67,6.36 -21.74,14.45 -1.52,2.03 -2.72,2.98 -3.48,7.76 -0.65,8.31 3.21,13.05 8.15,19.12 3.42,4.21 11.64,11.48 17.76,14.54 6.12,3.06 12.9,4.75 19.17,0.58 C 63.14,110.14 60.66,99.64 63,93.56 65.69,86.6 74.16,88.84 81,82.32 c 4.52,-4.31 5.63,-7.91 5.32,-10.98 -0.22,-2.2 -1.77,-3.19 -2.93,-3.73 -1,-0.47 -2.69,0.18 -3.54,1.91 -2.15,4.37 -5.6,6.92 -10.17,3.32 -3.69,-2.91 0.11,-11.22 0.11,-11.22 z"
         id="path434" />
      <path
         style="fill:#fffde7"
         d="m 54.74,60.56 c -0.75,-0.57 -4.77,-3.12 -8.26,0.09 -3.76,3.46 -0.7,8.19 -6.65,9.1 -7.53,1.16 -12,6.18 -9.54,11.94 2.64,6.18 14.38,7.49 14.88,23.35 0.24,7.59 5.55,7.28 8.06,4.91 5.81,-5.5 2.45,-17.65 8.14,-22.81 4.91,-4.45 12.35,-2.02 15.91,-8.25 0.63,-1.1 0.67,-2.07 -0.84,-1.44 -2.78,1.16 -6.25,1.75 -10.04,-1.96 -3.09,-3.04 -2.54,-7.25 -2.54,-7.25 0,0 -8.41,-7.14 -9.12,-7.68 z"
         id="path436" />
      <g
         id="g442">
        <ellipse
           transform="matrix(0.6845,-0.729,0.729,0.6845,-53.5011,67.3992)"
           style="fill:#82aec0"
           cx="51.119999"
           cy="95.510002"
           rx="3.1400001"
           ry="3.1099999"
           id="ellipse438" />
        <path
           style="fill:#2f7889"
           d="m 48.85,93.39 c 1.09,-1.21 3.18,-1.51 4.59,-0.35 0.69,0.56 1.16,1.42 1.23,2.36 0.07,0.93 -0.28,1.89 -0.92,2.59 -0.65,0.69 -1.59,1.1 -2.52,1.09 C 50.29,99.07 49.4,98.65 48.8,98 47.54,96.66 47.71,94.55 48.85,93.39 Z m 0,0 c -0.56,0.6 -0.86,1.43 -0.79,2.23 0.07,0.8 0.48,1.54 1.07,2 1.21,0.97 2.96,0.69 3.88,-0.32 0.96,-0.98 1.13,-2.75 0.08,-3.9 -0.5,-0.56 -1.26,-0.93 -2.07,-0.94 -0.79,-0.02 -1.6,0.33 -2.17,0.93 z"
           id="path440" />
      </g>
      <g
         id="g448">
        <ellipse
           transform="matrix(0.6845,-0.729,0.729,0.6845,-60.062,69.7506)"
           style="fill:#82aec0"
           cx="50.549999"
           cy="104.27"
           rx="2.6500001"
           ry="2.6199999"
           id="ellipse444" />
        <path
           style="fill:#2f7889"
           d="m 48.64,102.47 c 0.92,-1.02 2.68,-1.3 3.9,-0.32 0.59,0.47 1.01,1.21 1.08,2.02 0.07,0.8 -0.23,1.64 -0.79,2.24 -0.56,0.59 -1.38,0.95 -2.18,0.93 -0.81,-0.01 -1.57,-0.39 -2.08,-0.95 -1.06,-1.16 -0.89,-2.94 0.07,-3.92 z m 0,0 c -0.47,0.51 -0.72,1.21 -0.65,1.88 0.06,0.68 0.42,1.28 0.92,1.66 1.02,0.79 2.45,0.53 3.19,-0.3 0.78,-0.8 0.95,-2.24 0.1,-3.21 -0.41,-0.47 -1.04,-0.8 -1.72,-0.81 -0.68,-0.01 -1.36,0.28 -1.84,0.78 z"
           id="path446" />
      </g>
      <path
         style="fill:#f7cf92"
         d="M 102.8,25.55 96.4,18.7 53.51,62.41 c -0.42,0.42 -0.36,1.13 0.13,1.59 l 6.77,6.5 c 0.52,0.44 1.25,0.44 1.63,-0.01 z"
         id="path450" />
      <path
         style="fill:#f7cf92"
         d="M 94.98,19.85 94.69,18.7 c -0.79,-2.5 0.67,-3.11 1.3,-3.34 4.04,-1.46 17.42,-6.84 20.32,-7.58 2.49,-0.63 6.24,-0.44 6.53,3.27 0.09,1.2 -0.79,1.71 -1.95,2 -1.92,0.47 -3.16,0.43 -5.4,3.03 -1.91,2.21 -4.78,6.93 -6.05,9.17 -0.42,0.75 -1.21,1.21 -2.09,1.22 L 102.39,26 Z"
         id="path452" />
      <g
         id="g456">
        <path
           style="fill:#82aec0"
           d="m 48.37,64.58 c 0.71,0.12 1.33,0.33 1.96,0.53 0.4,0.43 0.83,0.83 1.24,1.25 l 2.49,2.49 2.49,2.49 1.25,1.25 c 0.2,0.63 0.41,1.25 0.54,1.95 C 57.64,74.41 57.02,74.2 56.39,74 L 55.14,72.75 52.65,70.26 50.16,67.77 C 49.74,67.36 49.34,66.93 48.91,66.53 48.7,65.92 48.49,65.29 48.37,64.58 Z"
           id="path454" />
      </g>
      <g
         id="g460">
        <path
           style="fill:#82aec0"
           d="m 40.67,72.29 c 0.71,0.12 1.33,0.33 1.96,0.53 0.4,0.43 0.83,0.83 1.24,1.25 l 2.49,2.49 2.49,2.49 1.25,1.25 c 0.2,0.63 0.41,1.25 0.54,1.95 -0.7,-0.13 -1.32,-0.34 -1.95,-0.54 L 47.44,80.46 44.95,77.97 42.46,75.48 C 42.04,75.07 41.64,74.64 41.21,74.24 40.99,73.62 40.79,73 40.67,72.29 Z"
           id="path458" />
      </g>
      <g
         id="g464">
        <path
           style="fill:#82aec0"
           d="m 36.64,78.03 c 0.64,0.33 1.17,0.71 1.71,1.1 0.25,0.53 0.54,1.05 0.8,1.57 l 1.62,3.13 1.62,3.13 0.81,1.56 c 0,0.66 0.01,1.32 -0.08,2.02 -0.63,-0.34 -1.16,-0.72 -1.7,-1.1 L 40.61,87.88 39,84.75 37.38,81.62 C 37.11,81.1 36.85,80.57 36.56,80.06 36.55,79.4 36.54,78.74 36.64,78.03 Z"
           id="path462" />
      </g>
      <g
         id="g478">
        <line
           style="fill:none;stroke:#82aec0;stroke-width:0.5;stroke-linecap:round;stroke-miterlimit:10"
           x1="27.59"
           y1="91.620003"
           x2="96.089996"
           y2="20.709999"
           id="line466" />
        <line
           style="fill:none;stroke:#82aec0;stroke-width:0.5;stroke-linecap:round;stroke-miterlimit:10"
           x1="28.860001"
           y1="92.769997"
           x2="97.220001"
           y2="21.59"
           id="line468" />
        <line
           style="fill:none;stroke:#82aec0;stroke-width:0.5;stroke-linecap:round;stroke-miterlimit:10"
           x1="30.129999"
           y1="93.93"
           x2="98.260002"
           y2="22.57"
           id="line470" />
        <line
           style="fill:none;stroke:#82aec0;stroke-width:0.5;stroke-linecap:round;stroke-miterlimit:10"
           x1="31.41"
           y1="95.080002"
           x2="99.260002"
           y2="23.59"
           id="line472" />
        <line
           style="fill:none;stroke:#82aec0;stroke-width:0.5;stroke-linecap:round;stroke-miterlimit:10"
           x1="32.68"
           y1="96.239998"
           x2="100.46"
           y2="24.4"
           id="line474" />
        <line
           style="fill:none;stroke:#82aec0;stroke-width:0.5;stroke-linecap:round;stroke-miterlimit:10"
           x1="33.950001"
           y1="97.400002"
           x2="101.68"
           y2="25.41"
           id="line476" />
      </g>
      <path
         style="fill:#2f7889"
         d="m 21.62,90.26 c -0.27,0.29 -0.34,0.67 -0.15,0.85 l 13.28,12.22 c 0.19,0.18 0.57,0.08 0.84,-0.21 l 4.5,-4.7 c 0.27,-0.29 0.34,-0.67 0.15,-0.85 L 26.96,85.35 c -0.19,-0.18 -0.57,-0.08 -0.84,0.21 z"
         id="path480" />
      <g
         id="g484">
        <path
           style="fill:#ff7043"
           d="m 40.5,51.25 c -0.81,-0.15 -1.25,-0.91 -0.93,-2.79 0.89,-5.3 4.39,-10.17 9.27,-12.44 1.71,-0.8 3.3,-0.66 3.63,1.4 0.17,1.09 -0.42,2.15 -2.01,3.07 -3.56,2.08 -6.95,5.12 -7.98,9.11 -0.38,1.44 -1.08,1.81 -1.98,1.65 z"
           id="path482" />
      </g>
      <g
         id="g498">
        <ellipse
           transform="matrix(0.5826,-0.8127,0.8127,0.5826,29.2495,83.1709)"
           style="fill:#82aec0"
           cx="95.599998"
           cy="13.11"
           rx="1.5700001"
           ry="2.21"
           id="ellipse486" />
        <ellipse
           transform="matrix(0.5826,-0.8127,0.8127,0.5826,32.1068,85.818)"
           style="fill:#82aec0"
           cx="99.610001"
           cy="11.65"
           rx="1.5700001"
           ry="2.21"
           id="ellipse488" />
        <ellipse
           transform="matrix(0.5826,-0.8127,0.8127,0.5826,34.964,88.465)"
           style="fill:#82aec0"
           cx="103.61"
           cy="10.19"
           rx="1.5700001"
           ry="2.21"
           id="ellipse490" />
        <ellipse
           transform="matrix(0.5826,-0.8127,0.8127,0.5826,37.8213,91.112)"
           style="fill:#82aec0"
           cx="107.62"
           cy="8.7299995"
           rx="1.5700001"
           ry="2.21"
           id="ellipse492" />
        <ellipse
           transform="matrix(0.5826,-0.8127,0.8127,0.5826,40.6785,93.759)"
           style="fill:#82aec0"
           cx="111.62"
           cy="7.27"
           rx="1.5700001"
           ry="2.21"
           id="ellipse494" />
        <ellipse
           transform="matrix(0.5826,-0.8127,0.8127,0.5826,43.5358,96.4061)"
           style="fill:#82aec0"
           cx="115.63"
           cy="5.8200002"
           rx="1.5700001"
           ry="2.21"
           id="ellipse496" />
      </g>
    </g>
    <g
       id="g1737"
       transform="matrix(0.6364516,0,0,0.6364516,127.68275,81.58665)">
      <path
         style="fill:#5b9821;stroke-width:0.264583"
         d="m 8.1491558,53.849459 c 0,0 0.6429375,-1.931458 2.1590002,-3.14325 1.516062,-1.211792 15.570729,3.979333 15.570729,3.979333 0,0 2.455333,0.875771 3.907896,3.196167 0.976312,1.561042 1.521354,3.868208 0.486833,6.654271 -2.465917,6.63575 -8.863542,5.868458 -10.530417,5.490104 -0.783166,-0.177271 -2.690812,-0.682625 -2.690812,-0.682625 0,0 -4.357688,3.598333 -9.6017292,0.838729 -3.9925624,-2.100792 -3.4977916,-5.241396 -3.4977916,-5.241396 0,0 -2.6881666,-2.688167 -1.524,-6.432021 1.4022917,-4.5085 5.7202916,-4.659312 5.7202916,-4.659312 z"
         id="path1657" />
      <path
         style="fill:#8bc02b;stroke-width:0.264583"
         d="m 17.242885,61.879563 c 3.638021,-0.605896 4.773083,-2.159 5.759979,-3.598333 1.087437,-1.5875 0.796396,-2.918354 1.553104,-2.955396 0.756708,-0.03704 1.359958,1.328208 0.529167,3.712104 -1.17475,3.370792 -3.590396,3.865562 -3.638021,4.773083 -0.03704,0.719667 2.57175,0.769938 4.926542,-0.378354 3.410479,-1.666875 3.410479,-5.569479 3.410479,-5.569479 0,0 -0.605896,-1.251479 -1.780646,-2.121958 -1.17475,-0.870479 -2.047875,-1.325563 -2.047875,-1.325563 0,0 -1.402292,-5.265208 -7.765521,-6.138333 -6.363229,-0.873125 -8.979958,3.563937 -8.979958,3.563937 0,0 0.2275416,1.439334 1.325562,3.106209 0.875771,1.330854 1.780646,1.288521 1.703917,2.045229 -0.05027,0.492125 -1.629833,0.642937 -3.2967082,-0.07673 -1.5187083,-0.656167 -1.8944166,-1.553104 -2.3098125,-1.553104 -0.4153958,0 -3.8602707,1.918229 -2.4235833,5.984874 1.1377084,3.21998 4.8974375,3.82323 5.5694791,3.939646 1.9711459,0.341313 3.1062079,-0.947208 1.7039169,-1.971146 -1.402292,-1.023937 -2.955396,-1.629833 -2.6140835,-2.651125 0.3677708,-1.105958 1.6801045,0.04762 3.2570205,0.73025 1.558396,0.674688 3.444875,0.764646 5.117042,0.484188 z"
         id="path1659" />
      <path
         style="fill:#6d4b41;stroke-width:0.264583"
         d="m 10.009177,66.102313 c 0,0 0.873125,-0.05027 1.232958,-0.153458 0.359833,-0.103188 0.846667,-0.410105 0.846667,-0.410105 0,0 3.373437,3.529542 3.722687,3.825875 0.341313,0.288396 0.743479,-4.108979 0.743479,-4.108979 0,0 0.769938,0.119063 1.489604,0.0053 0.947209,-0.150813 1.592792,-0.452438 1.592792,-0.452438 0,0 -0.460375,2.706688 -0.640292,3.733271 -0.11377,0.658813 -0.153458,2.489729 -0.153458,2.489729 l -2.465917,2.053167 -1.875895,-1.259417 c 0,0 -0.0053,-0.49477 -0.283105,-0.830791 -0.862541,-1.042459 -4.20952,-4.892146 -4.20952,-4.892146 z"
         id="path1661" />
      <path
         style="fill:#6d4b41;stroke-width:0.264583"
         d="m 18.610781,72.137459 1.875895,-2.259542 c 0,0 0.66675,0.05027 1.15623,0.05027 0.486833,0 1.336145,-0.103188 1.336145,-0.103188 0,0 -1.539875,2.079625 -2.362729,3.106209 -0.822854,1.026583 -1.899708,2.312458 -1.899708,2.312458 l -1.026583,-2.979208 z"
         id="path1663" />
      <path
         style="fill:#865b50;stroke-width:0.264583"
         d="m 17.277281,70.338292 c -0.767292,0.06879 -2.772834,1.489604 -2.772834,1.489604 0,0 0.103188,2.413 0.02646,3.775604 -0.07673,1.362604 -0.613834,3.58775 -0.119063,4.151313 0.428625,0.486833 4.03225,0.579437 4.569354,0.01323 0.53975,-0.566208 0.01587,-2.905125 0.01587,-4.421188 0,-1.516062 -0.153458,-4.315354 -0.153458,-4.315354 0,0 -0.693208,-0.769937 -1.566333,-0.693208 z"
         id="path1665" />
    </g>
    <g
       id="g3316"
       transform="matrix(0.57557385,0,0,0.57557385,104.65013,132.13121)">
      <path
         style="fill:url(#SVGID_1_);stroke-width:0.264583"
         d="M 29.510127,82.341093 H 1.6495028 c -1.09802082,0 -1.98966665,-0.891646 -1.98966665,-1.989667 V 52.490801 c 0,-1.098021 0.89164583,-1.989666 1.98966665,-1.989666 H 29.510127 c 1.098021,0 1.989667,0.891645 1.989667,1.989666 v 27.860625 c 0.0026,1.098021 -0.889,1.989667 -1.989667,1.989667 z"
         id="path2505" />
      <polygon
         style="fill:#88babc"
         points="28.65,18.84 28.65,84.25 24.17,84.25 24.17,49.13 12.34,49.13 12.34,91.78 21.84,91.78 21.84,117.22 118.97,117.22 118.97,106.11 121.3,106.11 121.3,62.39 102.3,62.39 102.3,84.25 60.19,84.25 60.19,18.84 "
         id="polygon2507"
         transform="matrix(0.26458333,0,0,0.26458333,-1.3455805,49.463968)" />
      <rect
         x="7.2295651"
         y="56.112946"
         style="fill:#3f737b;stroke-width:0.264583"
         width="0.62706244"
         height="2.0081875"
         id="rect2509" />
      <rect
         x="8.565711"
         y="56.112946"
         style="fill:#3f737b;stroke-width:0.264583"
         width="0.65352082"
         height="2.0081875"
         id="rect2511" />
      <polygon
         style="fill:#3f737b"
         points="42.85,25.13 42.85,32.72 45.21,32.7 45.27,25.13 "
         id="polygon2513"
         transform="matrix(0.26458333,0,0,0.26458333,-1.3455805,49.463968)" />
      <polygon
         style="fill:#abd7db"
         points="47.84,25.14 47.91,32.72 50.42,32.72 50.44,25.13 "
         id="polygon2515"
         transform="matrix(0.26458333,0,0,0.26458333,-1.3455805,49.463968)" />
      <rect
         x="7.2295651"
         y="56.112946"
         style="fill:#abd7db;stroke-width:0.264583"
         width="0.62706244"
         height="2.0081875"
         id="rect2517" />
      <rect
         x="8.565711"
         y="56.112946"
         style="fill:#abd7db;stroke-width:0.264583"
         width="0.65352082"
         height="2.0081875"
         id="rect2519" />
      <polygon
         style="fill:#abd7db"
         points="42.85,25.13 42.85,32.72 45.28,32.7 45.31,25.13 "
         id="polygon2521"
         transform="matrix(0.26458333,0,0,0.26458333,-1.3455805,49.463968)" />
      <polygon
         style="fill:#abd7db"
         points="47.84,37.14 47.91,44.72 50.42,44.72 50.44,37.13 "
         id="polygon2523"
         transform="matrix(0.26458333,0,0,0.26458333,-1.3455805,49.463968)" />
      <rect
         x="7.2295651"
         y="59.287949"
         style="fill:#abd7db;stroke-width:0.264583"
         width="0.62706244"
         height="2.0081875"
         id="rect2525" />
      <rect
         x="8.565711"
         y="59.287949"
         style="fill:#abd7db;stroke-width:0.264583"
         width="0.65352082"
         height="2.0081875"
         id="rect2527" />
      <polygon
         style="fill:#abd7db"
         points="42.85,37.13 42.85,44.72 45.28,44.7 45.31,37.13 "
         id="polygon2529"
         transform="matrix(0.26458333,0,0,0.26458333,-1.3455805,49.463968)" />
      <rect
         x="7.2295651"
         y="62.462948"
         style="fill:#abd7db;stroke-width:0.264583"
         width="0.62706244"
         height="2.0081875"
         id="rect2531" />
      <rect
         x="8.565711"
         y="62.462948"
         style="fill:#abd7db;stroke-width:0.264583"
         width="0.65352082"
         height="2.0081875"
         id="rect2533" />
      <polygon
         style="fill:#abd7db"
         points="42.85,49.13 42.85,56.72 45.28,56.7 45.31,49.13 "
         id="polygon2535"
         transform="matrix(0.26458333,0,0,0.26458333,-1.3455805,49.463968)" />
      <polygon
         style="fill:#abd7db"
         points="53.35,32.72 55.91,32.72 55.91,25.13 53.36,25.13 "
         id="polygon2537"
         transform="matrix(0.26458333,0,0,0.26458333,-1.3455805,49.463968)" />
      <rect
         x="26.58119"
         y="70.948135"
         style="fill:#abd7db;stroke-width:0.264583"
         width="0.76200002"
         height="1.0424583"
         id="rect2539" />
      <rect
         x="28.102545"
         y="70.948135"
         style="fill:#abd7db;stroke-width:0.264583"
         width="0.76200002"
         height="1.0424583"
         id="rect2541" />
      <rect
         x="26.58119"
         y="68.998154"
         style="fill:#abd7db;stroke-width:0.264583"
         width="0.76200002"
         height="1.0424583"
         id="rect2543" />
      <rect
         x="28.102545"
         y="68.998154"
         style="fill:#abd7db;stroke-width:0.264583"
         width="0.76200002"
         height="1.0424583"
         id="rect2545" />
      <rect
         x="26.58119"
         y="67.146072"
         style="fill:#abd7db;stroke-width:0.264583"
         width="0.76200002"
         height="1.0424583"
         id="rect2547" />
      <rect
         x="28.102545"
         y="67.146072"
         style="fill:#abd7db;stroke-width:0.264583"
         width="0.76200002"
         height="1.0424583"
         id="rect2549" />
      <path
         style="fill:url(#SVGID_2_);stroke-width:0.264583"
         d="m 29.081502,62.534385 c -0.09525,0.193145 0,11.297708 0,11.297708 h -4.198937 v -6.35 h -1.352021 v -2.029354 h -1.198562 v -1.722438 h -2.159 v 1.80975 h -1.373188 v 1.897063 h -1.418166 v 9.247187 h -1.3335 v -10.31875 h 0.62177 v -1.9685 h -0.62177 v -4.077229 h -0.701146 l -0.955146,-2.95275 h -1.881188 l -0.944562,2.95275 h -0.738187 v 4.077229 h -0.656167 v 1.9685 h 0.656167 v 10.31875 H 8.9281902 V 67.410655 H 3.2026069 v -10.414 c 0,0 -3.53218741,-0.02381 -3.54277075,-0.01323 v 23.368 c 0,1.098021 0.89164583,1.989667 1.98966665,1.989667 H 29.510127 c 1.098021,0 1.989667,-0.891646 1.989667,-1.989667 v -17.81704 z"
         id="path2562" />
      <rect
         x="0.16519032"
         y="80.211197"
         style="fill:#88babc;stroke-width:0.264583"
         width="7.9295621"
         height="0.6217708"
         id="rect2564" />
      <rect
         x="0.16519032"
         y="78.001923"
         style="fill:#88babc;stroke-width:0.264583"
         width="7.9295621"
         height="0.6217708"
         id="rect2566" />
      <rect
         x="0.16519032"
         y="75.71328"
         style="fill:#abd7db;stroke-width:0.264583"
         width="7.9295621"
         height="0.6217708"
         id="rect2568" />
      <rect
         x="0.16519032"
         y="73.504013"
         style="fill:#dcedf6;stroke-width:0.264583"
         width="7.9295621"
         height="0.6217708"
         id="rect2570" />
      <rect
         x="0.16519032"
         y="70.950783"
         style="fill:#dcedf6;stroke-width:0.264583"
         width="7.9295621"
         height="0.6217708"
         id="rect2572" />
      <rect
         x="0.16519032"
         y="68.741508"
         style="fill:#dcedf6;stroke-width:0.264583"
         width="7.9295621"
         height="0.6217708"
         id="rect2574" />
      <rect
         x="0.16519032"
         y="66.217384"
         style="fill:#88babc;stroke-width:0.264583"
         width="0.46566665"
         height="0.97895831"
         id="rect2576" />
      <rect
         x="1.7526903"
         y="66.217384"
         style="fill:#88babc;stroke-width:0.264583"
         width="0.46566665"
         height="0.97895831"
         id="rect2578" />
      <rect
         x="0.16519032"
         y="64.251534"
         style="fill:#abd7db;stroke-width:0.264583"
         width="0.46566665"
         height="0.97895831"
         id="rect2580" />
      <rect
         x="1.7526903"
         y="64.251534"
         style="fill:#abd7db;stroke-width:0.264583"
         width="0.46566665"
         height="0.97895831"
         id="rect2582" />
      <rect
         x="0.16519032"
         y="62.285675"
         style="fill:#dcedf6;stroke-width:0.264583"
         width="0.46566665"
         height="0.97895831"
         id="rect2584" />
      <rect
         x="1.7526903"
         y="62.285675"
         style="fill:#dcedf6;stroke-width:0.264583"
         width="0.46566665"
         height="0.97895831"
         id="rect2586" />
      <rect
         x="0.16519032"
         y="60.31982"
         style="fill:#dcedf6;stroke-width:0.264583"
         width="0.46566665"
         height="0.97895831"
         id="rect2588" />
      <rect
         x="1.7526903"
         y="60.31982"
         style="fill:#dcedf6;stroke-width:0.264583"
         width="0.46566665"
         height="0.97895831"
         id="rect2590" />
      <rect
         x="0.16519032"
         y="58.351322"
         style="fill:#dcedf6;stroke-width:0.264583"
         width="0.46566665"
         height="0.97895831"
         id="rect2592" />
      <rect
         x="1.7526903"
         y="58.351322"
         style="fill:#dcedf6;stroke-width:0.264583"
         width="0.46566665"
         height="0.97895831"
         id="rect2594" />
      <rect
         x="11.830669"
         y="66.532242"
         style="fill:#dcedf6;stroke-width:0.264583"
         width="0.60060418"
         height="1.2594167"
         id="rect2596" />
      <rect
         x="13.254128"
         y="66.532242"
         style="fill:#dcedf6;stroke-width:0.264583"
         width="0.60060418"
         height="1.2594167"
         id="rect2598" />
      <rect
         x="14.624669"
         y="66.532242"
         style="fill:#dcedf6;stroke-width:0.264583"
         width="0.60060418"
         height="1.2594167"
         id="rect2600" />
      <rect
         x="11.830669"
         y="68.91349"
         style="fill:#dcedf6;stroke-width:0.264583"
         width="0.60060418"
         height="1.2594167"
         id="rect2602" />
      <rect
         x="11.830669"
         y="75.313759"
         style="fill:#88babc;stroke-width:0.264583"
         width="0.60060418"
         height="1.2594167"
         id="rect2604" />
      <rect
         x="13.254128"
         y="75.313759"
         style="fill:#88babc;stroke-width:0.264583"
         width="0.60060418"
         height="1.2594167"
         id="rect2606" />
      <rect
         x="14.624669"
         y="75.313759"
         style="fill:#88babc;stroke-width:0.264583"
         width="0.60060418"
         height="1.2594167"
         id="rect2608" />
      <rect
         x="13.254128"
         y="68.91349"
         style="fill:#dcedf6;stroke-width:0.264583"
         width="0.60060418"
         height="1.2594167"
         id="rect2610" />
      <rect
         x="14.624669"
         y="68.91349"
         style="fill:#dcedf6;stroke-width:0.264583"
         width="0.60060418"
         height="1.2594167"
         id="rect2612" />
      <rect
         x="11.830669"
         y="71.294739"
         style="fill:#abd7db;stroke-width:0.264583"
         width="0.60060418"
         height="1.2594167"
         id="rect2614" />
      <rect
         x="13.254128"
         y="71.294739"
         style="fill:#abd7db;stroke-width:0.264583"
         width="0.60060418"
         height="1.2594167"
         id="rect2616" />
      <rect
         x="14.624669"
         y="71.294739"
         style="fill:#abd7db;stroke-width:0.264583"
         width="0.60060418"
         height="1.2594167"
         id="rect2618" />
      <path
         style="fill:#dcedf6;stroke-width:0.264583"
         d="m 12.944565,63.740884 h 1.232958 v -1.830916 c 0,0 0.04498,-0.687917 -0.62177,-0.703792 -0.627063,-0.01588 -0.635,0.687917 -0.635,0.687917 0,0 0.03969,1.846791 0.02381,1.846791 z"
         id="path2620" />
      <rect
         x="19.781399"
         y="66.439636"
         style="fill:#dcedf6;stroke-width:0.264583"
         width="0.60060418"
         height="2.5638123"
         id="rect2622" />
      <rect
         x="22.033003"
         y="66.439636"
         style="fill:#dcedf6;stroke-width:0.264583"
         width="0.60060418"
         height="2.5638123"
         id="rect2624" />
      <rect
         x="20.919107"
         y="66.439636"
         style="fill:#dcedf6;stroke-width:0.264583"
         width="0.60060418"
         height="2.5638123"
         id="rect2626" />
      <rect
         x="18.860649"
         y="69.990341"
         style="fill:#dcedf6;stroke-width:0.264583"
         width="0.60060418"
         height="0.81756246"
         id="rect2628" />
      <rect
         x="20.929691"
         y="69.990341"
         style="fill:#dcedf6;stroke-width:0.264583"
         width="0.60060418"
         height="0.81756246"
         id="rect2630" />
      <rect
         x="22.998732"
         y="69.990341"
         style="fill:#dcedf6;stroke-width:0.264583"
         width="0.60060418"
         height="0.81756246"
         id="rect2632" />
      <rect
         x="18.860649"
         y="72.636177"
         style="fill:#dcedf6;stroke-width:0.264583"
         width="0.60060418"
         height="0.81756246"
         id="rect2634" />
      <rect
         x="20.929691"
         y="72.636177"
         style="fill:#dcedf6;stroke-width:0.264583"
         width="0.60060418"
         height="0.81756246"
         id="rect2636" />
      <rect
         x="22.998732"
         y="72.636177"
         style="fill:#dcedf6;stroke-width:0.264583"
         width="0.60060418"
         height="0.81756246"
         id="rect2638" />
      <rect
         x="18.860649"
         y="75.13649"
         style="fill:#abd7db;stroke-width:0.264583"
         width="0.60060418"
         height="0.81756246"
         id="rect2640" />
      <rect
         x="20.929691"
         y="75.13649"
         style="fill:#abd7db;stroke-width:0.264583"
         width="0.60060418"
         height="0.81756246"
         id="rect2642" />
      <rect
         x="22.998732"
         y="75.13649"
         style="fill:#abd7db;stroke-width:0.264583"
         width="0.60060418"
         height="0.81756246"
         id="rect2644" />
      <rect
         x="18.860649"
         y="77.782318"
         style="fill:#88babc;stroke-width:0.264583"
         width="0.60060418"
         height="0.81756246"
         id="rect2646" />
      <rect
         x="20.929691"
         y="77.782318"
         style="fill:#88babc;stroke-width:0.264583"
         width="0.60060418"
         height="0.81756246"
         id="rect2648" />
      <rect
         x="22.998732"
         y="77.782318"
         style="fill:#88babc;stroke-width:0.264583"
         width="0.60060418"
         height="0.81756246"
         id="rect2650" />
      <rect
         x="18.860649"
         y="80.287926"
         style="fill:#88babc;stroke-width:0.264583"
         width="0.60060418"
         height="0.81756246"
         id="rect2652" />
      <rect
         x="20.929691"
         y="80.287926"
         style="fill:#88babc;stroke-width:0.264583"
         width="0.60060418"
         height="0.81756246"
         id="rect2654" />
      <rect
         x="22.998732"
         y="80.287926"
         style="fill:#88babc;stroke-width:0.264583"
         width="0.60060418"
         height="0.81756246"
         id="rect2656" />
    </g>
    <g
       id="g4380"
       transform="matrix(0.6413386,0,0,0.6413386,95.428387,179.3433)">
      <path
         d="m -38.706236,-34.934274 c -0.489479,0.296334 -0.968375,0.545042 -1.436688,0.754063 -0.470958,0.211666 -0.931333,0.383646 -1.386416,0.523875 -0.455084,0.140229 -0.899584,0.251354 -1.338792,0.333375 -0.439208,0.08467 -0.870479,0.142875 -1.293812,0.179916 -0.423334,0.03704 -0.844021,0.05292 -1.256771,0.05292 -0.41275,0 -0.820208,-0.01588 -1.222375,-0.04762 -0.402167,-0.03175 -0.799042,-0.07408 -1.190625,-0.127 -0.391583,-0.05556 -0.780521,-0.119062 -1.164167,-0.193146 -0.383646,-0.07408 -0.764646,-0.153458 -1.143,-0.240771 -0.378354,-0.08731 -0.754062,-0.179916 -1.124479,-0.277812 -0.373062,-0.0979 -0.743479,-0.201083 -1.113896,-0.304271 -0.370416,-0.103187 -0.738187,-0.214312 -1.103312,-0.322792 -0.367771,-0.108479 -0.732896,-0.219604 -1.100667,-0.330729 -0.365125,-0.111125 -0.732896,-0.22225 -1.100667,-0.330729 -0.36777,-0.108479 -0.735541,-0.216958 -1.103312,-0.322792 -0.370417,-0.105833 -0.740833,-0.206375 -1.113896,-0.30427 -0.373062,-0.0979 -0.748771,-0.1905 -1.124479,-0.277813 -0.375708,-0.08731 -0.759354,-0.169333 -1.143,-0.240771 -0.383646,-0.07408 -0.772583,-0.137583 -1.164167,-0.193146 -0.391583,-0.05556 -0.788458,-0.0979 -1.190625,-0.127 -0.402166,-0.0291 -0.809625,-0.04762 -1.222375,-0.04762 -0.41275,0 -0.830791,0.01587 -1.25677,0.05292 -0.42598,0.03704 -0.85725,0.09525 -1.293813,0.179917 -0.439208,0.08467 -0.883708,0.193146 -1.338792,0.333375 -0.455083,0.140229 -0.915458,0.312208 -1.386416,0.523875 -0.468313,0.211666 -0.947209,0.460375 -1.436688,0.754062 v -1.325562 c 0,0 0,-0.762 0,-1.156229 v -1.325563 c 0.489479,-0.296333 0.968375,-0.545042 1.436688,-0.754062 0.468312,-0.209021 0.931333,-0.383646 1.386416,-0.523875 0.455084,-0.14023 0.899584,-0.251355 1.338792,-0.333375 0.439208,-0.08467 0.870479,-0.142875 1.293813,-0.179917 0.425979,-0.03704 0.84402,-0.05292 1.25677,-0.05292 0.41275,0 0.820209,0.01588 1.222375,0.04763 0.402167,0.0291 0.799042,0.07408 1.190625,0.127 0.391584,0.05292 0.780521,0.119063 1.164167,0.193146 0.383646,0.07408 0.764646,0.153458 1.143,0.240771 0.378354,0.08731 0.754062,0.179917 1.124479,0.277812 0.373063,0.0979 0.743479,0.201084 1.113896,0.304271 0.370417,0.103188 0.738187,0.214313 1.103312,0.322792 0.365125,0.108479 0.732896,0.219604 1.100667,0.330729 0.365125,0.111125 0.732896,0.22225 1.100667,0.330729 0.367771,0.108479 0.735541,0.216959 1.103312,0.322792 0.367771,0.105833 0.740834,0.206375 1.113896,0.304271 0.373063,0.0979 0.748771,0.1905 1.124479,0.277812 0.378354,0.08731 0.759354,0.169334 1.143,0.240771 0.383646,0.07408 0.772584,0.137583 1.164167,0.193146 0.391583,0.05556 0.788458,0.0979 1.190625,0.127 0.402167,0.0291 0.809625,0.04763 1.222375,0.04763 0.41275,0 0.830791,-0.01588 1.256771,-0.05292 0.425979,-0.03704 0.85725,-0.09525 1.293812,-0.179916 0.439208,-0.08467 0.883708,-0.193146 1.338792,-0.333375 0.455083,-0.14023 0.915458,-0.312209 1.386416,-0.523875 0.470959,-0.211667 0.949855,-0.460375 1.436688,-0.754063 v 1.325563 1.156229 c 0,0 0,0.817562 0,1.325562 z"
         fill="#ff0000"
         id="path3925"
         style="stroke-width:0.264583" />
      <path
         d="m -38.706236,-31.124274 c -0.489479,0.296333 -0.968375,0.545042 -1.436688,0.754063 -0.470958,0.211666 -0.931333,0.383645 -1.386416,0.523875 -0.455084,0.140229 -0.899584,0.251354 -1.338792,0.333375 -0.439208,0.08467 -0.870479,0.142875 -1.293812,0.179916 -0.423334,0.03704 -0.844021,0.05292 -1.256771,0.05292 -0.41275,0 -0.820208,-0.01587 -1.222375,-0.04763 -0.402167,-0.03175 -0.799042,-0.07408 -1.190625,-0.127 -0.391583,-0.05556 -0.780521,-0.119063 -1.164167,-0.193146 -0.383646,-0.07408 -0.764646,-0.153458 -1.143,-0.240771 -0.378354,-0.08731 -0.754062,-0.179916 -1.124479,-0.277812 -0.373062,-0.0979 -0.743479,-0.201084 -1.113896,-0.304271 -0.370416,-0.103188 -0.738187,-0.214313 -1.103312,-0.322792 -0.367771,-0.108479 -0.732896,-0.219604 -1.100667,-0.330729 -0.367771,-0.111125 -0.732896,-0.22225 -1.100667,-0.330729 -0.36777,-0.108479 -0.735541,-0.216958 -1.103312,-0.322792 -0.370417,-0.105833 -0.740833,-0.206375 -1.113896,-0.30427 -0.373062,-0.0979 -0.748771,-0.1905 -1.124479,-0.277813 -0.378354,-0.08731 -0.759354,-0.169333 -1.143,-0.240771 -0.383646,-0.07408 -0.772583,-0.137583 -1.164167,-0.193146 -0.391583,-0.05556 -0.788458,-0.09789 -1.190625,-0.127 -0.402166,-0.0291 -0.809625,-0.04763 -1.222375,-0.04763 -0.41275,0 -0.830791,0.01588 -1.25677,0.05292 -0.42598,0.03704 -0.85725,0.09525 -1.293813,0.179917 -0.439208,0.08467 -0.883708,0.193146 -1.338792,0.333375 -0.455083,0.140229 -0.915458,0.312208 -1.386416,0.523875 -0.470959,0.211666 -0.947209,0.457729 -1.436688,0.754062 v -1.325562 c 0,0 0,-0.762 0,-1.156229 0,-0.39423 0,-0.817563 0,-1.325563 0.489479,-0.296333 0.968375,-0.545042 1.436688,-0.754062 0.470958,-0.211667 0.931333,-0.383646 1.386416,-0.523875 0.455084,-0.14023 0.899584,-0.251355 1.338792,-0.333375 0.439208,-0.08467 0.870479,-0.142875 1.293813,-0.179917 0.425979,-0.03704 0.84402,-0.05292 1.25677,-0.05292 0.41275,0 0.820209,0.01588 1.222375,0.04762 0.402167,0.0291 0.799042,0.07408 1.190625,0.127 0.391584,0.05292 0.780521,0.119063 1.164167,0.193146 0.383646,0.07408 0.764646,0.153458 1.143,0.240771 0.378354,0.08731 0.754062,0.179917 1.124479,0.277812 0.373063,0.0979 0.743479,0.201084 1.113896,0.304271 0.370417,0.105834 0.738187,0.214313 1.103312,0.322792 0.367771,0.108479 0.732896,0.219604 1.100667,0.330729 0.365125,0.111125 0.732896,0.22225 1.100667,0.330729 0.367771,0.108479 0.735541,0.216959 1.103312,0.322792 0.367771,0.105833 0.740834,0.206375 1.113896,0.304271 0.373063,0.0979 0.748771,0.1905 1.124479,0.277812 0.378354,0.08731 0.759354,0.169334 1.143,0.240771 0.383646,0.07408 0.772584,0.137583 1.164167,0.193146 0.391583,0.05556 0.788458,0.0979 1.190625,0.127 0.402167,0.0291 0.809625,0.04762 1.222375,0.04762 0.41275,0 0.830791,-0.01588 1.256771,-0.05292 0.425979,-0.03704 0.85725,-0.09525 1.293812,-0.179916 0.439208,-0.08467 0.883708,-0.193146 1.338792,-0.333375 0.455083,-0.14023 0.915458,-0.312209 1.386416,-0.523875 0.470959,-0.211667 0.949855,-0.460375 1.436688,-0.754063 v 1.325563 c 0,0 0,0.762 0,1.156229 0,0.394229 0,0.817562 0,1.325562 z"
         fill="#fb8d00"
         id="path3927"
         style="stroke-width:0.264583" />
      <path
         d="m -38.706236,-27.314274 c -0.489479,0.296333 -0.968375,0.545042 -1.436688,0.754063 -0.470958,0.211666 -0.931333,0.383645 -1.386416,0.523875 -0.455084,0.140229 -0.899584,0.251354 -1.338792,0.333375 -0.439208,0.08467 -0.870479,0.142875 -1.293812,0.179916 -0.423334,0.03704 -0.844021,0.05292 -1.256771,0.05292 -0.41275,0 -0.820208,-0.01588 -1.222375,-0.04763 -0.402167,-0.03175 -0.799042,-0.07408 -1.190625,-0.127 -0.391583,-0.05556 -0.780521,-0.119063 -1.164167,-0.193146 -0.383646,-0.07408 -0.764646,-0.153458 -1.143,-0.240771 -0.378354,-0.08731 -0.754062,-0.179916 -1.124479,-0.277812 -0.373062,-0.0979 -0.743479,-0.201084 -1.113896,-0.304271 -0.370416,-0.103188 -0.738187,-0.214313 -1.103312,-0.322792 -0.367771,-0.108479 -0.735542,-0.219604 -1.100667,-0.330729 -0.365125,-0.111125 -0.732896,-0.22225 -1.100667,-0.330729 -0.36777,-0.108479 -0.735541,-0.216958 -1.103312,-0.322792 -0.370417,-0.105833 -0.740833,-0.206375 -1.113896,-0.304271 -0.373062,-0.0979 -0.748771,-0.1905 -1.124479,-0.277812 -0.375708,-0.08731 -0.759354,-0.169333 -1.143,-0.240771 -0.383646,-0.07408 -0.772583,-0.137583 -1.164167,-0.193146 -0.391583,-0.05556 -0.788458,-0.0979 -1.190625,-0.127 -0.402166,-0.0291 -0.809625,-0.04763 -1.222375,-0.04763 -0.41275,0 -0.830791,0.01588 -1.25677,0.05292 -0.42598,0.03704 -0.85725,0.09525 -1.293813,0.179917 -0.439208,0.08467 -0.883708,0.193145 -1.338792,0.333375 -0.455083,0.140229 -0.915458,0.312208 -1.386416,0.523875 -0.468313,0.20902 -0.947209,0.457729 -1.436688,0.754062 v -1.325562 c 0,0 0,-0.762 0,-1.15623 v -1.325562 c 0.489479,-0.296333 0.968375,-0.545042 1.436688,-0.754062 0.468312,-0.209021 0.931333,-0.383646 1.386416,-0.523875 0.455084,-0.14023 0.899584,-0.251355 1.338792,-0.333375 0.439208,-0.08467 0.870479,-0.142875 1.293813,-0.179917 0.425979,-0.03704 0.84402,-0.05292 1.25677,-0.05292 0.41275,0 0.820209,0.01588 1.222375,0.04763 0.402167,0.0291 0.799042,0.07408 1.190625,0.127 0.391584,0.05556 0.780521,0.119063 1.164167,0.193146 0.383646,0.07408 0.764646,0.153458 1.143,0.240771 0.378354,0.08731 0.754062,0.179917 1.124479,0.277812 0.373063,0.0979 0.743479,0.201084 1.113896,0.304271 0.370417,0.105834 0.738187,0.214313 1.103312,0.322792 0.367771,0.108479 0.732896,0.219604 1.100667,0.330729 0.367771,0.111125 0.732896,0.22225 1.100667,0.330729 0.367771,0.108479 0.735541,0.216958 1.103312,0.322792 0.367771,0.105833 0.740834,0.206375 1.113896,0.304271 0.373063,0.0979 0.748771,0.1905 1.124479,0.277812 0.378354,0.08731 0.759354,0.169333 1.143,0.240771 0.383646,0.07408 0.772584,0.137583 1.164167,0.193146 0.391583,0.05556 0.788458,0.0979 1.190625,0.127 0.402167,0.0291 0.809625,0.04763 1.222375,0.04763 0.41275,0 0.830791,-0.01588 1.256771,-0.05292 0.425979,-0.03704 0.85725,-0.09525 1.293812,-0.179917 0.439208,-0.08467 0.883708,-0.193145 1.338792,-0.333375 0.455083,-0.140229 0.915458,-0.312208 1.386416,-0.523875 0.470959,-0.211666 0.949855,-0.460375 1.436688,-0.754062 v 1.325562 1.15623 c 0,0 0,0.817562 0,1.325562 z"
         fill="#ffe000"
         id="path3929"
         style="stroke-width:0.264583" />
      <path
         d="m -38.706236,-23.504274 c -0.489479,0.296333 -0.968375,0.545042 -1.436688,0.754063 -0.470958,0.211666 -0.931333,0.383645 -1.386416,0.523875 -0.455084,0.140229 -0.899584,0.251354 -1.338792,0.333375 -0.439208,0.08202 -0.870479,0.142875 -1.293812,0.179916 -0.42598,0.03704 -0.844021,0.05292 -1.256771,0.05292 -0.41275,0 -0.820208,-0.01588 -1.222375,-0.04763 -0.402167,-0.0291 -0.799042,-0.07408 -1.190625,-0.127 -0.391583,-0.05556 -0.780521,-0.119063 -1.164167,-0.193146 -0.383646,-0.07408 -0.764646,-0.153458 -1.143,-0.240771 -0.378354,-0.08731 -0.754062,-0.179916 -1.124479,-0.277812 -0.373062,-0.0979 -0.743479,-0.201084 -1.113896,-0.304271 -0.370416,-0.103188 -0.738187,-0.214313 -1.103312,-0.322792 -0.367771,-0.108479 -0.732896,-0.219604 -1.100667,-0.330729 -0.365125,-0.111125 -0.732896,-0.22225 -1.100667,-0.330729 -0.36777,-0.108479 -0.735541,-0.216958 -1.103312,-0.322792 -0.370417,-0.105833 -0.740833,-0.206375 -1.113896,-0.304271 -0.373062,-0.0979 -0.748771,-0.1905 -1.124479,-0.277812 -0.375708,-0.08731 -0.759354,-0.169333 -1.143,-0.240771 -0.383646,-0.07408 -0.772583,-0.137583 -1.164167,-0.193146 -0.391583,-0.05556 -0.788458,-0.0979 -1.190625,-0.127 -0.402166,-0.0291 -0.809625,-0.04763 -1.222375,-0.04763 -0.41275,0 -0.830791,0.01588 -1.25677,0.05292 -0.42598,0.03704 -0.85725,0.09525 -1.293813,0.179917 -0.439208,0.08467 -0.883708,0.193145 -1.338792,0.333375 -0.455083,0.140229 -0.915458,0.312208 -1.386416,0.523875 -0.468313,0.211666 -0.947209,0.460375 -1.436688,0.754062 v -1.325562 c 0,0 0,-0.762 0,-1.15623 v -1.325562 c 0.489479,-0.296333 0.968375,-0.545042 1.436688,-0.754063 0.470958,-0.211666 0.931333,-0.383645 1.386416,-0.523875 0.455084,-0.140229 0.899584,-0.251354 1.338792,-0.333375 0.439208,-0.08467 0.870479,-0.142875 1.293813,-0.179916 0.425979,-0.03704 0.84402,-0.05292 1.25677,-0.05292 0.41275,0 0.820209,0.01588 1.222375,0.04763 0.402167,0.0291 0.799042,0.07408 1.190625,0.127 0.391584,0.05556 0.780521,0.119063 1.164167,0.193146 0.383646,0.07408 0.764646,0.153458 1.143,0.240771 0.378354,0.08731 0.754062,0.179916 1.124479,0.277812 0.373063,0.0979 0.743479,0.201084 1.113896,0.304271 0.370417,0.105833 0.738187,0.214313 1.103312,0.322792 0.367771,0.108479 0.732896,0.219604 1.100667,0.330729 0.365125,0.111125 0.732896,0.22225 1.100667,0.330729 0.367771,0.108479 0.735541,0.216958 1.103312,0.322792 0.367771,0.105833 0.740834,0.206375 1.113896,0.304271 0.373063,0.0979 0.748771,0.1905 1.124479,0.277812 0.378354,0.08731 0.759354,0.169333 1.143,0.240771 0.383646,0.07408 0.772584,0.137583 1.164167,0.193146 0.391583,0.05556 0.788458,0.0979 1.190625,0.127 0.402167,0.0291 0.809625,0.04763 1.222375,0.04763 0.41275,0 0.830791,-0.01588 1.256771,-0.05292 0.425979,-0.03704 0.85725,-0.09525 1.293812,-0.179917 0.439208,-0.08467 0.883708,-0.193145 1.338792,-0.333375 0.455083,-0.140229 0.915458,-0.312208 1.386416,-0.523875 0.470959,-0.211666 0.949855,-0.460375 1.436688,-0.754062 v 1.325562 1.15623 c 0,0 0,0.817562 0,1.325562 z"
         fill="#43a047"
         id="path3931"
         style="stroke-width:0.264583" />
      <path
         d="m -38.706236,-19.694274 c -0.489479,0.296333 -0.968375,0.545042 -1.436688,0.754063 -0.470958,0.211666 -0.931333,0.383645 -1.386416,0.523875 -0.455084,0.140229 -0.899584,0.251354 -1.338792,0.333375 -0.439208,0.08202 -0.870479,0.142875 -1.293812,0.179916 -0.42598,0.03704 -0.844021,0.05292 -1.256771,0.05292 -0.41275,0 -0.820208,-0.01587 -1.222375,-0.04763 -0.402167,-0.0291 -0.799042,-0.07408 -1.190625,-0.127 -0.391583,-0.05556 -0.780521,-0.119063 -1.164167,-0.193146 -0.383646,-0.07408 -0.764646,-0.153458 -1.143,-0.240771 -0.378354,-0.08731 -0.754062,-0.179916 -1.124479,-0.277812 -0.373062,-0.0979 -0.743479,-0.201084 -1.113896,-0.304271 -0.370416,-0.105833 -0.738187,-0.214313 -1.103312,-0.322792 -0.367771,-0.108479 -0.732896,-0.219604 -1.100667,-0.330729 -0.365125,-0.111125 -0.732896,-0.22225 -1.100667,-0.330729 -0.36777,-0.108479 -0.735541,-0.216958 -1.103312,-0.322792 -0.370417,-0.105833 -0.740833,-0.206375 -1.113896,-0.304271 -0.373062,-0.09789 -0.748771,-0.1905 -1.124479,-0.277812 -0.375708,-0.08731 -0.759354,-0.169333 -1.143,-0.240771 -0.383646,-0.07408 -0.772583,-0.137583 -1.164167,-0.193146 -0.391583,-0.05556 -0.788458,-0.0979 -1.190625,-0.127 -0.402166,-0.0291 -0.809625,-0.04763 -1.222375,-0.04763 -0.41275,0 -0.830791,0.01587 -1.25677,0.05292 -0.42598,0.03704 -0.85725,0.09525 -1.293813,0.179917 -0.436562,0.08467 -0.883708,0.193145 -1.338792,0.333375 -0.455083,0.140229 -0.915458,0.312208 -1.386416,0.523875 -0.470959,0.211666 -0.947209,0.457729 -1.436688,0.754062 v -1.325562 c 0,0 0,-0.762 0,-1.15623 v -1.325562 c 0.489479,-0.296333 0.968375,-0.545042 1.436688,-0.754063 0.470958,-0.211666 0.931333,-0.383645 1.386416,-0.523875 0.455084,-0.140229 0.899584,-0.251354 1.338792,-0.333375 0.439208,-0.08467 0.870479,-0.142875 1.293813,-0.179916 0.425979,-0.03704 0.84402,-0.05292 1.25677,-0.05292 0.41275,0 0.820209,0.01587 1.222375,0.04763 0.402167,0.0291 0.799042,0.07408 1.190625,0.127 0.391584,0.05556 0.780521,0.119063 1.164167,0.193146 0.383646,0.07408 0.764646,0.153458 1.143,0.240771 0.378354,0.08731 0.754062,0.179916 1.124479,0.277812 0.373063,0.0979 0.743479,0.201084 1.113896,0.304271 0.370417,0.105833 0.738187,0.214313 1.103312,0.322792 0.367771,0.108479 0.732896,0.219604 1.100667,0.330729 0.365125,0.111125 0.732896,0.22225 1.100667,0.330729 0.367771,0.108479 0.735541,0.216958 1.103312,0.322792 0.367771,0.105833 0.740834,0.206375 1.113896,0.304271 0.373063,0.09789 0.748771,0.1905 1.124479,0.277812 0.378354,0.08731 0.759354,0.169333 1.143,0.240771 0.383646,0.07408 0.772584,0.137583 1.164167,0.193146 0.391583,0.05556 0.788458,0.0979 1.190625,0.127 0.402167,0.0291 0.809625,0.04763 1.222375,0.04763 0.41275,0 0.830791,-0.01587 1.256771,-0.05292 0.425979,-0.03704 0.85725,-0.09525 1.293812,-0.179917 0.439208,-0.08467 0.883708,-0.193145 1.338792,-0.333375 0.455083,-0.140229 0.915458,-0.312208 1.386416,-0.523875 0.470959,-0.211666 0.949855,-0.460375 1.436688,-0.754062 v 1.325562 1.15623 c 0,0 0,0.817562 0,1.325562 z"
         fill="#1565c0"
         id="path3933"
         style="stroke-width:0.264583" />
      <path
         d="m -38.706236,-15.884274 c -0.489479,0.296333 -0.968375,0.545042 -1.436688,0.754062 -0.470958,0.211667 -0.931333,0.383646 -1.386416,0.523875 -0.455084,0.14023 -0.899584,0.251355 -1.338792,0.333375 -0.439208,0.08467 -0.870479,0.142875 -1.293812,0.179917 -0.42598,0.03704 -0.844021,0.05292 -1.256771,0.05292 -0.41275,0 -0.820208,-0.01588 -1.222375,-0.04763 -0.402167,-0.0291 -0.799042,-0.07408 -1.190625,-0.127 -0.391583,-0.05556 -0.780521,-0.119063 -1.164167,-0.193146 -0.383646,-0.07408 -0.764646,-0.153458 -1.143,-0.240771 -0.378354,-0.08731 -0.754062,-0.179917 -1.124479,-0.277812 -0.370417,-0.0979 -0.743479,-0.201084 -1.113896,-0.304271 -0.370416,-0.105834 -0.738187,-0.214313 -1.103312,-0.322792 -0.367771,-0.108479 -0.732896,-0.219604 -1.100667,-0.330729 -0.365125,-0.111125 -0.732896,-0.22225 -1.100667,-0.330729 -0.36777,-0.108479 -0.735541,-0.216959 -1.103312,-0.322792 -0.370417,-0.105833 -0.740833,-0.206375 -1.113896,-0.304271 -0.373062,-0.0979 -0.748771,-0.1905 -1.124479,-0.277812 -0.375708,-0.08731 -0.759354,-0.169334 -1.143,-0.240771 -0.383646,-0.07408 -0.772583,-0.137583 -1.164167,-0.193146 -0.391583,-0.05556 -0.788458,-0.0979 -1.190625,-0.127 -0.402166,-0.0291 -0.809625,-0.04763 -1.222375,-0.04763 -0.41275,0 -0.830791,0.01588 -1.25677,0.05292 -0.42598,0.03704 -0.85725,0.09525 -1.293813,0.179916 -0.439208,0.08467 -0.883708,0.193146 -1.338792,0.333375 -0.455083,0.14023 -0.915458,0.312209 -1.386416,0.523875 -0.470959,0.211667 -0.949854,0.460375 -1.436688,0.754063 v -1.325563 c 0,0 0,-0.761999 0,-1.156229 v -1.325562 c 0.489479,-0.296333 0.968375,-0.545042 1.436688,-0.754063 0.468312,-0.20902 0.931333,-0.383645 1.386416,-0.523875 0.455084,-0.140229 0.899584,-0.251354 1.338792,-0.333375 0.439208,-0.08202 0.870479,-0.142875 1.293813,-0.179916 0.425979,-0.03704 0.84402,-0.05292 1.25677,-0.05292 0.41275,0 0.820209,0.01588 1.222375,0.04763 0.402167,0.0291 0.799042,0.07408 1.190625,0.127 0.391584,0.05292 0.780521,0.119063 1.164167,0.193146 0.383646,0.07408 0.764646,0.153458 1.143,0.240771 0.378354,0.08731 0.754062,0.179916 1.124479,0.277812 0.373063,0.0979 0.743479,0.201084 1.113896,0.304271 0.370417,0.105833 0.738187,0.214313 1.103312,0.322792 0.367771,0.108479 0.732896,0.219604 1.100667,0.330729 0.365125,0.111125 0.732896,0.22225 1.100667,0.330729 0.367771,0.108479 0.735541,0.216958 1.103312,0.322792 0.370417,0.105833 0.740834,0.206375 1.113896,0.304271 0.373063,0.0979 0.748771,0.1905 1.124479,0.277812 0.378354,0.08731 0.759354,0.169333 1.143,0.240771 0.383646,0.07408 0.772584,0.137583 1.164167,0.193146 0.391583,0.05556 0.788458,0.0979 1.190625,0.127 0.402167,0.0291 0.809625,0.04763 1.222375,0.04763 0.41275,0 0.830791,-0.01588 1.256771,-0.05292 0.425979,-0.03704 0.85725,-0.09525 1.293812,-0.179917 0.436563,-0.08467 0.883708,-0.193145 1.338792,-0.333375 0.455083,-0.140229 0.915458,-0.312208 1.386416,-0.523875 0.470959,-0.211666 0.949855,-0.460375 1.436688,-0.754062 v 1.325562 1.156229 c 0,0 0,0.817563 0,1.325563 z"
         fill="#7a1fa6"
         id="path3935"
         style="stroke-width:0.264583" />
      <g
         opacity="0.2"
         id="g3939"
         transform="matrix(0.26458333,0,0,0.26458333,-71.514569,-44.247607)">
        <path
           d="m 120,26.98 v 5.44 4.72 4.48 c 0,0 0,3.06 0,4.72 v 5.44 5.33 c 0,0 0,3.2 0,4.69 v 4.37 4.37 4.69 c 0,0 0,3.41 0,5.33 V 86 c 0,0 0,3.21 0,4.72 v 4.48 4.72 c 0,0 0,3.45 0,5.44 -1.87,0.91 -3.69,1.66 -5.49,2.27 -1.79,0.61 -3.55,1.09 -5.27,1.45 -1.72,0.36 -3.42,0.63 -5.08,0.8 -1.66,0.17 -3.3,0.26 -4.9,0.28 -1.6,0.02 -3.19,-0.03 -4.75,-0.14 -1.56,-0.11 -3.09,-0.27 -4.61,-0.47 -1.52,-0.2 -3.01,-0.45 -4.49,-0.72 -1.48,-0.27 -2.95,-0.59 -4.4,-0.92 -1.45,-0.33 -2.89,-0.69 -4.32,-1.06 -1.43,-0.37 -2.85,-0.77 -4.26,-1.17 -1.41,-0.4 -2.82,-0.81 -4.22,-1.23 l -4.2,-1.26 c -1.4,-0.42 -2.8,-0.85 -4.2,-1.26 -1.4,-0.41 -2.81,-0.83 -4.22,-1.23 -1.41,-0.4 -2.83,-0.79 -4.26,-1.17 -1.43,-0.37 -2.87,-0.73 -4.32,-1.06 -1.45,-0.33 -2.92,-0.64 -4.4,-0.92 -1.48,-0.28 -2.98,-0.52 -4.49,-0.72 -1.52,-0.2 -3.05,-0.36 -4.61,-0.47 -1.56,-0.11 -3.14,-0.16 -4.75,-0.14 -1.61,0.02 -3.24,0.1 -4.9,0.28 -1.66,0.17 -3.35,0.43 -5.08,0.8 -1.72,0.37 -3.48,0.84 -5.27,1.45 -1.79,0.61 -3.62,1.36 -5.49,2.27 v -5.44 -4.72 -4.48 -4.72 -5.44 -5.33 c 0,0 0,-3.2 0,-4.69 0,-1.49 0,-2.93 0,-4.37 v -4.37 c 0,0 0,-3.04 0,-4.69 0,-1.65 0,-3.41 0,-5.33 v -5.43 -4.72 c 0,0 0,-2.97 0,-4.48 v -4.72 -5.43 c 1.87,-0.91 3.69,-1.66 5.49,-2.27 1.8,-0.61 3.55,-1.09 5.27,-1.45 1.72,-0.37 3.42,-0.63 5.08,-0.8 1.66,-0.17 3.3,-0.26 4.9,-0.28 1.61,-0.02 3.19,0.03 4.75,0.14 1.56,0.11 3.09,0.27 4.61,0.47 1.52,0.2 3.01,0.45 4.49,0.72 1.48,0.28 2.95,0.59 4.4,0.92 1.45,0.33 2.89,0.69 4.32,1.06 1.43,0.37 2.85,0.77 4.26,1.17 1.41,0.4 2.82,0.81 4.22,1.23 1.4,0.42 2.8,0.84 4.2,1.26 1.4,0.42 2.8,0.85 4.2,1.26 1.4,0.42 2.81,0.83 4.22,1.23 1.41,0.4 2.83,0.79 4.26,1.17 1.43,0.37 2.87,0.73 4.32,1.06 1.45,0.33 2.92,0.64 4.4,0.92 1.48,0.28 2.98,0.52 4.49,0.72 1.52,0.2 3.05,0.36 4.61,0.47 1.56,0.11 3.14,0.16 4.75,0.14 1.61,-0.02 3.24,-0.1 4.9,-0.28 1.66,-0.17 3.35,-0.43 5.08,-0.8 1.72,-0.37 3.48,-0.84 5.27,-1.45 1.79,-0.61 3.62,-1.38 5.49,-2.29 m 4,-6.18 c -1.85,1.12 -3.66,2.06 -5.43,2.85 -1.78,0.8 -3.52,1.45 -5.24,1.98 -1.72,0.53 -3.4,0.95 -5.06,1.26 -1.66,0.32 -3.29,0.54 -4.89,0.68 -1.6,0.14 -3.19,0.2 -4.75,0.2 -1.56,0 -3.1,-0.06 -4.62,-0.18 -1.52,-0.11 -3.02,-0.28 -4.5,-0.48 C 88.03,26.9 86.56,26.66 85.11,26.38 83.66,26.1 82.22,25.8 80.79,25.47 79.36,25.14 77.94,24.79 76.54,24.42 75.13,24.05 73.73,23.66 72.33,23.27 70.93,22.88 69.54,22.46 68.16,22.05 66.77,21.64 65.39,21.22 64,20.8 c -1.38,-0.42 -2.77,-0.84 -4.16,-1.25 -1.39,-0.41 -2.78,-0.82 -4.17,-1.22 -1.39,-0.4 -2.8,-0.78 -4.21,-1.15 -1.41,-0.37 -2.83,-0.72 -4.25,-1.05 -1.43,-0.33 -2.87,-0.64 -4.32,-0.91 -1.45,-0.28 -2.92,-0.52 -4.4,-0.73 -1.48,-0.21 -2.98,-0.37 -4.5,-0.48 -1.52,-0.11 -3.06,-0.18 -4.62,-0.18 -1.56,0 -3.14,0.06 -4.75,0.2 -1.61,0.14 -3.24,0.36 -4.89,0.68 -1.66,0.32 -3.34,0.73 -5.06,1.26 -1.72,0.53 -3.46,1.18 -5.24,1.98 C 7.65,18.75 5.85,19.68 4,20.8 v 5.33 c 0,0 0,3.2 0,4.69 v 4.37 4.37 4.69 c 0,0 0,3.41 0,5.33 v 0.02 5.33 c 0,0 0,3.2 0,4.69 v 4.37 4.37 4.69 c 0,0 0,3.41 0,5.33 v 5.33 c 0,0 0,3.2 0,4.69 0,1.49 0,2.93 0,4.37 0,1.44 0,2.88 0,4.37 0,1.49 0,3.04 0,4.69 0,1.65 0,3.41 0,5.33 1.85,-1.12 3.66,-2.06 5.43,-2.85 1.78,-0.8 3.52,-1.45 5.24,-1.98 1.72,-0.53 3.4,-0.95 5.06,-1.26 1.66,-0.32 3.29,-0.54 4.89,-0.68 1.61,-0.14 3.19,-0.2 4.75,-0.2 1.56,0 3.1,0.06 4.62,0.18 1.52,0.11 3.02,0.28 4.5,0.48 1.48,0.21 2.95,0.45 4.4,0.73 1.45,0.28 2.89,0.58 4.32,0.91 1.43,0.33 2.85,0.68 4.25,1.05 1.41,0.37 2.81,0.76 4.21,1.15 1.4,0.4 2.79,0.81 4.17,1.22 1.38,0.41 2.77,0.83 4.16,1.25 1.38,0.42 2.77,0.84 4.16,1.25 1.39,0.41 2.78,0.82 4.17,1.22 1.4,0.4 2.8,0.78 4.21,1.15 1.41,0.37 2.83,0.72 4.25,1.05 1.43,0.33 2.87,0.64 4.32,0.91 1.45,0.28 2.92,0.52 4.4,0.73 1.48,0.21 2.98,0.37 4.5,0.48 1.52,0.11 3.06,0.18 4.62,0.18 1.56,0 3.14,-0.06 4.75,-0.2 1.61,-0.14 3.24,-0.36 4.89,-0.68 1.66,-0.32 3.34,-0.73 5.06,-1.26 1.72,-0.53 3.46,-1.18 5.24,-1.98 1.78,-0.8 3.59,-1.74 5.43,-2.85 v -5.33 c 0,0 0,-3.2 0,-4.69 0,-1.49 0,-2.93 0,-4.37 0,-1.44 0,-2.88 0,-4.37 0,-1.49 0,-3.04 0,-4.69 0,-1.65 0,-3.41 0,-5.33 v -5.33 c 0,0 0,-3.2 0,-4.69 v -4.37 -4.37 -4.69 c 0,0 0,-3.41 0,-5.33 v -0.02 -5.33 c 0,0 0,-3.2 0,-4.69 v -4.37 -4.37 -4.69 c 0,0 0,-3.41 0,-5.33 z"
           fill="#424242"
           id="path3937" />
      </g>
      <path
         d="m -38.706236,-15.884274 c -0.489479,0.296333 -0.968375,0.545042 -1.436688,0.754062 -0.470958,0.211667 -0.931333,0.383646 -1.386416,0.523875 -0.455084,0.14023 -0.899584,0.251355 -1.338792,0.333375 -0.439208,0.08467 -0.870479,0.142875 -1.293812,0.179917 -0.42598,0.03704 -0.844021,0.05292 -1.256771,0.05292 -0.41275,0 -0.820208,-0.01588 -1.222375,-0.04763 -0.402167,-0.0291 -0.799042,-0.07408 -1.190625,-0.127 -0.391583,-0.05556 -0.780521,-0.119063 -1.164167,-0.193146 -0.383646,-0.07408 -0.764646,-0.153458 -1.143,-0.240771 -0.378354,-0.08731 -0.754062,-0.179917 -1.124479,-0.277812 -0.370417,-0.0979 -0.743479,-0.201084 -1.113896,-0.304271 -0.370416,-0.105834 -0.738187,-0.214313 -1.103312,-0.322792 -0.367771,-0.108479 -0.732896,-0.219604 -1.100667,-0.330729 -0.365125,-0.111125 -0.732896,-0.22225 -1.100667,-0.330729 -0.36777,-0.108479 -0.735541,-0.216959 -1.103312,-0.322792 -0.370417,-0.105833 -0.740833,-0.206375 -1.113896,-0.304271 -0.373062,-0.0979 -0.748771,-0.1905 -1.124479,-0.277812 -0.375708,-0.08731 -0.759354,-0.169334 -1.143,-0.240771 -0.383646,-0.07408 -0.772583,-0.137583 -1.164167,-0.193146 -0.391583,-0.05556 -0.788458,-0.0979 -1.190625,-0.127 -0.402166,-0.0291 -0.809625,-0.04763 -1.222375,-0.04763 -0.41275,0 -0.830791,0.01588 -1.25677,0.05292 -0.42598,0.03704 -0.85725,0.09525 -1.293813,0.179916 -0.439208,0.08467 -0.883708,0.193146 -1.338792,0.333375 -0.455083,0.14023 -0.915458,0.312209 -1.386416,0.523875 -0.470959,0.211667 -0.949854,0.460375 -1.436688,0.754063 v -1.484313 -1.407583 -1.341437 -1.285875 -1.23825 c 0,0 0,-0.806979 0,-1.201209 v -1.172104 c 0,0 0,-0.772583 0,-1.153583 0,-0.381 0,-0.764646 0,-1.145646 v -1.145646 -1.153583 -1.172104 c 0,0 0,-0.79375 0,-1.201208 0,-0.407459 0,-0.817563 0,-1.23825 v -1.285875 c 0,0 0,-0.883709 0,-1.341438 v -1.407583 -1.484313 c 0.489479,-0.296333 0.968375,-0.545041 1.436688,-0.754062 0.468312,-0.209021 0.931333,-0.383646 1.386416,-0.523875 0.455084,-0.140229 0.899584,-0.251354 1.338792,-0.333375 0.439208,-0.08467 0.870479,-0.142875 1.293813,-0.179917 0.425979,-0.03704 0.84402,-0.05292 1.25677,-0.05292 0.41275,0 0.820209,0.01588 1.222375,0.04762 0.402167,0.02911 0.799042,0.07408 1.190625,0.127 0.391584,0.05292 0.780521,0.119063 1.164167,0.193146 0.383646,0.07408 0.764646,0.153459 1.143,0.240771 0.378354,0.08731 0.754062,0.179917 1.124479,0.277813 0.373063,0.09789 0.743479,0.201083 1.113896,0.30427 0.370417,0.103188 0.738187,0.214313 1.103312,0.322792 0.365125,0.108479 0.732896,0.219604 1.100667,0.330729 0.365125,0.111125 0.732896,0.22225 1.100667,0.330729 0.367771,0.10848 0.735541,0.216959 1.103312,0.322792 0.367771,0.105833 0.740834,0.206375 1.113896,0.304271 0.373063,0.0979 0.748771,0.1905 1.124479,0.277812 0.378354,0.08731 0.759354,0.169334 1.143,0.240771 0.383646,0.07408 0.772584,0.137584 1.164167,0.193146 0.391583,0.05556 0.788458,0.0979 1.190625,0.127 0.402167,0.0291 0.809625,0.04762 1.222375,0.04762 0.41275,0 0.830791,-0.01588 1.256771,-0.05292 0.425979,-0.03704 0.85725,-0.09525 1.293812,-0.179916 0.439208,-0.08467 0.883708,-0.193146 1.338792,-0.333375 0.455083,-0.140229 0.915458,-0.312209 1.386416,-0.523875 0.470959,-0.211667 0.949855,-0.460375 1.436688,-0.754063 v 1.484313 1.407583 1.341438 c 0,0 0,0.865187 0,1.285875 v 1.23825 c 0,0 0,0.806979 0,1.201208 0,0.394229 0,0.785812 0,1.172104 v 1.153583 1.145646 1.145646 c 0,0 0,0.767292 0,1.153583 0,0.386292 0,0.777875 0,1.172104 v 1.201209 c 0,0 0,0.817562 0,1.23825 v 1.285875 1.341437 1.407583 z"
         fill="url(#a)"
         opacity="0.3"
         id="path3956"
         style="fill:url(#a);stroke-width:0.264583" />
    </g>
    <g
       id="g5683"
       transform="matrix(0.62965085,0,0,0.62965085,86.391967,27.410775)">
      <g
         id="g5045"
         transform="matrix(0.26458333,0,0,0.26458333,4.9401061,68.989363)">
        <polygon
           style="fill:#b9baba"
           points="72.71,91.15 98.95,96.63 98.48,98.57 72.34,92.89 "
           id="polygon5043" />
      </g>
      <g
         id="g5049"
         transform="matrix(0.26458333,0,0,0.26458333,4.9401061,68.989363)">
        <polygon
           style="fill:#b9baba"
           points="72,108.31 71.75,106.58 99.9,100.79 100.31,102.75 "
           id="polygon5047" />
      </g>
      <path
         style="fill:#858587;stroke-width:0.264583"
         d="m 23.558835,93.09555 c -1.397,-0.06615 -2.420937,1.367896 -2.304521,2.524125 0.121709,1.201208 1.000125,2.084917 2.352146,2.058458 1.275292,-0.02381 2.156354,-0.90752 2.180167,-2.254249 0.02381,-1.34673 -0.685271,-2.25425 -2.227792,-2.328334 z m 0.661458,3.384021 c -0.613833,0.3175 -1.362604,0.111125 -1.7145,-0.53975 -0.3175,-0.587375 0.04763,-1.479021 0.685271,-1.690687 0.587375,-0.195792 1.185334,0.05027 1.494896,0.53975 0.341313,0.537104 0.195792,1.346729 -0.465667,1.690687 z"
         id="path5051" />
      <g
         id="g5055"
         transform="matrix(0.26458333,0,0,0.26458333,4.9401061,68.989363)">
        <rect
           x="94.800003"
           y="87.599998"
           transform="matrix(0.2186,-0.9758,0.9758,0.2186,-5.111,169.8255)"
           style="fill:#b9baba"
           width="17.370001"
           height="1"
           id="rect5053" />
      </g>
      <g
         id="g5059"
         transform="matrix(0.26458333,0,0,0.26458333,4.9401061,68.989363)">
        <polygon
           style="fill:#b9baba"
           points="113.92,84.29 104.74,95.84 118.51,89.65 118.92,90.56 101.39,98.43 113.14,83.67 "
           id="polygon5057" />
      </g>
      <g
         id="g5063"
         transform="matrix(0.26458333,0,0,0.26458333,4.9401061,68.989363)">
        <polygon
           style="fill:#b9baba"
           points="120.66,96.77 120.82,97.76 105.4,100.26 120.13,105.91 119.78,106.84 101.58,99.87 "
           id="polygon5061" />
      </g>
      <g
         id="g5067"
         transform="matrix(0.26458333,0,0,0.26458333,4.9401061,68.989363)">
        <polygon
           style="fill:#b9baba"
           points="99.4,96 96.36,79.57 97.35,79.42 100.39,95.85 "
           id="polygon5065" />
      </g>
      <g
         id="g5071"
         transform="matrix(0.26458333,0,0,0.26458333,4.9401061,68.989363)">
        <rect
           x="91.540001"
           y="82.839996"
           transform="matrix(0.7571,-0.6533,0.6533,0.7571,-37.2969,82.3126)"
           style="fill:#b9baba"
           width="1"
           height="16.93"
           id="rect5069" />
      </g>
      <g
         id="g5075"
         transform="matrix(0.26458333,0,0,0.26458333,4.9401061,68.989363)">
        <path
           style="fill:#b9baba"
           d="m 85.18,113.54 -0.6,-0.8 0.3,0.4 -0.32,-0.38 c 0.39,-0.35 9.5,-9.63 12.98,-13.17 l 0.71,0.7 c -3.84,3.91 -12.81,13.05 -13.07,13.25 z"
           id="path5073" />
      </g>
      <g
         id="g5079"
         transform="matrix(0.26458333,0,0,0.26458333,4.9401061,68.989363)">
        <rect
           x="99.639999"
           y="101.86"
           transform="matrix(0.9908,-0.1355,0.1355,0.9908,-14.1509,14.5993)"
           style="fill:#b9baba"
           width="1"
           height="18.719999"
           id="rect5077" />
      </g>
      <g
         id="g5083"
         transform="matrix(0.26458333,0,0,0.26458333,4.9401061,68.989363)">
        <polygon
           style="fill:#b9baba"
           points="101.12,102.11 115.9,113.2 115.3,114 101.44,103.61 92.8,119.43 91.93,118.95 "
           id="polygon5081" />
      </g>
      <g
         id="g5087"
         transform="matrix(0.26458333,0,0,0.26458333,4.9401061,68.989363)">
        <rect
           x="105.85"
           y="100.68"
           transform="matrix(0.9319,-0.3628,0.3628,0.9319,-32.5981,46.0692)"
           style="fill:#b9baba"
           width="1"
           height="18.299999"
           id="rect5085" />
      </g>
      <ellipse
         style="fill:#c9c8c8;stroke-width:0.264583"
         cx="31.573065"
         cy="95.310112"
         rx="1.0795"
         ry="1.04775"
         id="ellipse5089" />
      <path
         style="fill:#484d50;stroke-width:0.264583"
         d="m 31.443418,88.859571 c -3.669771,0.03969 -6.352645,2.780771 -6.458479,6.397625 -0.103187,3.466042 2.645833,6.487584 6.315604,6.604004 3.921125,0.12435 6.813021,-2.913067 6.728354,-6.532566 -0.08467,-3.518959 -2.828395,-6.511396 -6.585479,-6.469063 z m -0.134937,12.027959 c -3.145896,-0.10054 -5.503333,-2.688167 -5.413375,-5.662084 0.0926,-3.100917 2.391833,-5.450417 5.537729,-5.484812 3.219979,-0.0344 5.572125,2.529416 5.643562,5.545666 0.07144,3.103563 -2.405062,5.70706 -5.767916,5.60123 z"
         id="path5091" />
      <path
         style="fill:#c9c9c9;stroke-width:0.264583"
         d="m 31.472522,89.600404 c -3.251729,0.03704 -5.627687,2.463271 -5.722937,5.66473 -0.0926,3.069166 2.344208,5.744106 5.593292,5.847296 3.473979,0.10847 6.035145,-2.579692 5.958416,-5.783796 -0.07144,-3.114146 -2.502958,-5.762625 -5.828771,-5.72823 z M 31.32171,100.63353 c -2.979208,-0.0926 -5.093229,-2.540001 -5.008563,-5.328709 0.08731,-2.910417 2.116667,-5.040312 5.098521,-5.072062 3.050646,-0.0344 5.386917,2.373312 5.347229,5.207 -0.04233,2.817812 -2.251604,5.294311 -5.437187,5.193771 z"
         id="path5093" />
      <g
         id="g5097"
         transform="matrix(0.26458333,0,0,0.26458333,4.9401061,68.989363)">
        <rect
           x="16.52"
           y="110.07"
           transform="matrix(0.213,-0.9771,0.9771,0.213,-87.1337,113.0715)"
           style="fill:#b9baba"
           width="20.200001"
           height="1.1"
           id="rect5095" />
      </g>
      <g
         id="g5101"
         transform="matrix(0.26458333,0,0,0.26458333,4.9401061,68.989363)">
        <rect
           x="28.629999"
           y="95.709999"
           transform="matrix(0.9335,-0.3585,0.3585,0.9335,-31.9857,20.017)"
           style="fill:#b9baba"
           width="18.719999"
           height="1.1"
           id="rect5099" />
      </g>
      <g
         id="g5105"
         transform="matrix(0.26458333,0,0,0.26458333,4.9401061,68.989363)">
        <polygon
           style="fill:#b9baba"
           points="23.26,79.49 24.33,79.23 29.03,98.08 42.06,114.32 41.2,115.01 28.02,98.58 "
           id="polygon5103" />
      </g>
      <g
         id="g5109"
         transform="matrix(0.26458333,0,0,0.26458333,4.9401061,68.989363)">
        <polygon
           style="fill:#b9baba"
           points="27.01,98.57 26.06,98.14 32.3,79.81 33.35,80.14 "
           id="polygon5107" />
      </g>
      <g
         id="g5113"
         transform="matrix(0.26458333,0,0,0.26458333,4.9401061,68.989363)">
        <rect
           x="25.51"
           y="91.870003"
           transform="matrix(0.7294,-0.6841,0.6841,0.7294,-53.6359,49.2554)"
           style="fill:#b9baba"
           width="19.860001"
           height="1.1"
           id="rect5111" />
      </g>
      <g
         id="g5117"
         transform="matrix(0.26458333,0,0,0.26458333,4.9401061,68.989363)">
        <rect
           x="17.290001"
           y="83.489998"
           transform="matrix(0.4943,-0.8693,0.8693,0.4943,-71.8098,62.5347)"
           style="fill:#b9baba"
           width="1.1"
           height="18.98"
           id="rect5115" />
      </g>
      <g
         id="g5121"
         transform="matrix(0.26458333,0,0,0.26458333,4.9401061,68.989363)">
        <polygon
           style="fill:#b9baba"
           points="24.57,100.08 6.55,95.87 6.8,94.8 26.17,99.32 17.04,117.82 16.06,117.34 "
           id="polygon5119" />
      </g>
      <g
         id="g5125"
         transform="matrix(0.26458333,0,0,0.26458333,4.9401061,68.989363)">
        <polygon
           style="fill:#b9baba"
           points="25.96,98.66 15.8,82.46 16.73,81.87 27.67,99.31 6.83,105.25 6.53,104.19 "
           id="polygon5123" />
      </g>
      <g
         id="g5129"
         transform="matrix(0.26458333,0,0,0.26458333,4.9401061,68.989363)">
        <polygon
           style="fill:#b9baba"
           points="27.13,101.38 46.53,106.21 46.27,107.27 27.33,102.56 10.78,113.27 10.18,112.34 "
           id="polygon5127" />
      </g>
      <g
         id="g5133"
         transform="matrix(0.26458333,0,0,0.26458333,4.9401061,68.989363)">
        <rect
           x="29.549999"
           y="101.01"
           transform="matrix(0.9181,-0.3964,0.3964,0.9181,-41.4191,21.0018)"
           style="fill:#b9baba"
           width="1.1"
           height="19.389999"
           id="rect5131" />
      </g>
      <g
         id="g5137"
         transform="matrix(0.26458333,0,0,0.26458333,4.9401061,68.989363)">
        <rect
           x="38.57"
           y="90.190002"
           transform="matrix(0.1032,-0.9947,0.9947,0.1032,-63.2017,127.5252)"
           style="fill:#b9baba"
           width="1.1"
           height="17.24"
           id="rect5135" />
      </g>
      <path
         style="fill:#484d50;stroke-width:0.264583"
         d="m 12.152648,88.878092 c -3.6697711,0.03969 -6.3500002,2.780771 -6.4584794,6.397625 -0.1031875,3.466041 2.6458333,6.487583 6.3156044,6.604003 3.921125,0.12435 6.81302,-2.913066 6.728354,-6.532566 -0.08202,-3.518958 -2.828396,-6.511395 -6.585479,-6.469062 z M 12.01771,100.90605 C 8.8718144,100.80551 6.5143769,98.217883 6.6043352,95.243967 6.6969394,92.14305 8.9961685,89.79355 12.142064,89.759154 c 3.219979,-0.03439 5.572125,2.529417 5.643563,5.545667 0.07408,3.103562 -2.405063,5.707059 -5.767917,5.601229 z"
         id="path5139" />
      <path
         style="fill:#c9c9c9;stroke-width:0.264583"
         d="m 12.181752,89.618925 c -3.2517293,0.03704 -5.6250418,2.463271 -5.7202918,5.667375 -0.092604,3.069167 2.3442084,5.7441 5.5932918,5.84729 3.473979,0.10848 6.035146,-2.579686 5.958416,-5.78379 -0.07408,-3.116791 -2.502958,-5.765271 -5.831416,-5.730875 z m -0.148167,11.033125 c -2.9792081,-0.0926 -5.0932289,-2.54 -5.0085623,-5.328708 0.087313,-2.910417 2.1166667,-5.040313 5.0985213,-5.072063 3.050645,-0.0344 5.386916,2.373313 5.347229,5.207 -0.04498,2.817813 -2.25425,5.294311 -5.437188,5.193771 z"
         id="path5141" />
      <path
         style="fill:#c9c9c9;stroke-width:0.264583"
         d="m 17.666564,83.067842 c 0,0 0.378354,-0.889 0.394229,-1.105958 0.01588,-0.219604 -0.0635,-0.468313 -0.428625,-0.481542 -0.365125,-0.01587 -1.119187,-0.04233 -1.119187,-0.04233 l -0.740833,-1.481667 -0.508,-0.804333 c 0,0 -0.378355,-0.132292 -0.627063,0.08731 -0.248708,0.219604 -0.306917,0.465667 -0.132292,0.801688 0.174625,0.336021 1.04775,2.185458 1.25148,2.243666 0.203729,0.05821 1.04775,0.01588 1.105958,0.04498 0.05821,0.02911 -0.261938,0.669396 -0.261938,0.669396 z"
         id="path5143" />
      <path
         style="fill:#b3b3b3;stroke-width:0.264583"
         d="m 28.792293,83.562613 -1.275291,0.783166 -0.926042,-0.529166 c 0,0 -0.465667,-0.359834 -0.804333,-0.484188 -0.415396,-0.153458 -0.98425,-0.07673 -1.259417,-0.470958 -0.214312,-0.304271 3.796771,-0.420688 3.796771,-0.420688 z"
         id="path5145" />
      <path
         style="fill:#5e6268;stroke-width:0.264583"
         d="m 25.19396,81.924842 c -0.685271,0.04762 -0.992187,0.07144 -1.063625,0.354542 -0.07673,0.30427 0.515938,0.735541 0.772583,0.859895 0.26723,0.129646 1.561042,-0.259291 1.74625,-0.219604 0.53975,0.116417 1.354667,0.814917 1.775354,0.830792 0.423334,0.01587 1.677459,-0.973667 1.79123,-1.063625 0.203729,-0.161396 0.277812,-0.727604 -0.365125,-0.785812 -0.637646,-0.05556 -4.116917,-0.01323 -4.656667,0.02381 z"
         id="path5147" />
      <path
         style="fill:#5e6268;stroke-width:0.264583"
         d="m 15.354106,78.892717 c -0.373063,0.02117 -0.301625,0.764646 -0.177271,0.971021 0.174625,0.291042 0.423333,0.523875 0.859896,0.53975 0.436562,0.01588 4.077229,-0.1905 4.355042,-0.232833 0.277812,-0.04498 0.275166,-0.418042 0.171979,-0.801688 -0.06615,-0.240771 -0.288396,-0.664104 -0.563563,-0.685271 -0.391583,-0.0291 -4.220104,0.185209 -4.646083,0.209021 z"
         id="path5149" />
      <path
         style="fill:#ffca00;fill-opacity:1;stroke-width:0.264583"
         d="m 31.731814,94.847092 -4.442354,-8.969375 0.291042,-1.558396 -1.235605,-0.116417 c 0,0 -0.22225,1.198563 -0.280458,1.240896 -0.05821,0.04498 -8.733896,-0.148166 -8.733896,-0.148166 l 0.45773,-1.547813 -1.272646,-0.156104 c -0.132292,0.407458 -2.418292,8.315854 -2.971271,9.289521 -0.552979,0.976312 -1.150937,1.87325 -1.150937,1.87325 0,0 -0.23548,-0.121709 -0.505355,-0.02646 -0.20902,0.07408 -0.574145,0.325438 -0.465666,0.849313 0.08731,0.423333 0.555625,0.685271 0.939271,0.555625 0.582083,-0.198438 0.523874,-0.748771 0.523874,-0.748771 0,0 1.37848,-1.314979 1.85473,-2.0955 0.470958,-0.775229 1.508125,-4.511146 1.534583,-4.5085 0.100542,0.01058 6.850062,7.448021 7.072312,7.519458 0.174625,0.05821 8.112125,-0.53975 8.112125,-0.53975 l 0.452438,-0.34925 z m -8.54075,-0.597958 c 0,0 -6.495521,-6.836834 -6.450541,-6.971771 0.0053,-0.01587 0.164041,-0.592667 0.182562,-0.619125 0.05292,-0.07673 8.694208,0.195791 8.694208,0.195791 z m 1.026584,0.859895 2.518833,-7.863416 3.947583,7.572375 z"
         id="path5151" />
      <path
         style="fill:#626168;stroke-width:0.264583"
         d="m 12.089148,94.976738 c -0.06879,0.01058 -0.428625,0.365125 -0.420688,0.510645 0.0053,0.148167 0.388938,0.420688 0.505354,0.428625 0.113771,0.0053 0.428625,-0.396875 0.428625,-0.492124 -0.0026,-0.09525 -0.425979,-0.460375 -0.513291,-0.447146 z"
         id="path5153" />
      <path
         style="fill:#626168;stroke-width:0.264583"
         d="m 31.430189,94.802113 c -0.07408,0.04233 -0.3175,0.386291 -0.325437,0.489479 -0.0079,0.103187 0.174625,0.489479 0.238125,0.513291 0.0635,0.02381 0.425979,0.03175 0.521229,0.0079 0.09525,-0.02381 0.3175,-0.370417 0.3175,-0.465667 0,-0.09525 -0.134938,-0.386291 -0.1905,-0.457729 -0.05556,-0.07144 -0.505354,-0.119062 -0.560917,-0.08731 z"
         id="path5155" />
      <path
         style="fill:#c9c9c9;stroke-width:0.264583"
         d="m 26.05121,83.790154 c -0.0926,0.07673 -0.209021,0.762 0.01323,0.77523 0.22225,0.01323 1.508125,0.04233 1.592792,0 0.08467,-0.04233 0.0979,-0.637646 0.02646,-0.719667 -0.07144,-0.08202 -1.550458,-0.127 -1.632479,-0.05556 z"
         id="path5157" />
      <path
         style="fill:#b3b3b3;stroke-width:0.264583"
         d="m 16.39921,82.723884 c -0.153458,0.05556 -0.470958,1.010708 -0.402167,1.121833 0.06879,0.111125 2.021417,0.333375 2.119313,0.3175 0.0979,-0.01323 0.346604,-1.0795 0.277812,-1.164167 -0.06879,-0.08467 -1.854729,-0.328083 -1.994958,-0.275166 z"
         id="path5159" />
      <path
         style="fill:#b3b3b3;stroke-width:0.264583"
         d="m 20.793939,97.193946 c 0,0 1.793875,-1.756833 2.00025,-1.947333 0.169334,-0.156104 0.338667,-0.375709 0.642938,-0.338667 0.304271,0.03704 0.394229,0.232833 0.394229,0.232833 l -0.333375,0.822854 -2.024063,1.730375 -0.251354,1.053042 -1.812396,-0.418042 c 0,0 -0.0026,-0.608541 0,-0.759354 0.0026,-0.166687 -0.03439,-0.346604 0.34925,-0.346604 0.383646,0 1.034521,-0.0291 1.034521,-0.0291 z"
         id="path5161" />
      <path
         style="fill:#858587;stroke-width:0.264583"
         d="m 21.174939,97.590821 c -0.04233,0.0635 -0.01058,0.579437 -0.04233,0.672042 -0.03175,0.09525 -0.502708,0.05292 -0.748771,0.0635 -0.298979,0.01323 -0.973667,0 -0.973667,0 0,0 0,0.428625 0.01058,0.523875 0.01058,0.09525 0.08467,0.246062 0.407458,0.246062 0.322792,0 1.381125,-0.04233 1.553104,-0.05292 0.171979,-0.01058 0.354542,-0.156104 0.351896,-0.449791 -0.0026,-0.224896 0.0026,-0.679979 0.0026,-0.679979 0,0 1.785937,-1.717146 1.979083,-1.88648 0.193146,-0.171979 0.314854,-0.267229 0.298979,-0.523875 -0.01058,-0.171979 -0.179916,-0.362479 -0.179916,-0.362479 z"
         id="path5163" />
    </g>
  </g>
</svg>
